SplineFontDB: 3.0
FontName: m1
FullName: m1
FamilyName: m1
Weight: Medium
Copyright: Created by Khaled Hosny with Sorts Mill Tools 2.1.0_alpha1 <http://bitbucket.org/sortsmill/sortsmill-tools>
UComments: "2015-10-10: Created." 
Version: 001.000
StrokeWidth: 172
ItalicAngle: 0
UnderlinePosition: -100
UnderlineWidth: 50
Ascent: 800
Descent: 200
LayerCount: 2
Layer: 0 0 "Back"  1
Layer: 1 0 "Fore"  0
XUID: [1021 670 513581992 4353041]
FSType: 0
OS2_WeightWidthSlopeOnly: 0
OS2_UseTypoMetrics: 1
CreationTime: 1444496159
ModificationTime: 1444843830
OS2TypoAscent: 0
OS2TypoAOffset: 1
OS2TypoDescent: 0
OS2TypoDOffset: 1
OS2TypoLinegap: 90
OS2WinAscent: 0
OS2WinAOffset: 1
OS2WinDescent: 0
OS2WinDOffset: 1
HheadAscent: 0
HheadAOffset: 1
HheadDescent: 0
HheadDOffset: 1
MarkAttachClasses: 1
DEI: 91125
Encoding: UnicodeBmp
Compacted: 1
UnicodeInterp: none
NameList: AGL For New Fonts
DisplaySize: -96
AntiAlias: 1
FitToEm: 0
WinInfo: 0 6 5
BeginPrivate: 0
EndPrivate
BeginChars: 65563 63

StartChar: uni0627
Encoding: 1575 1575 0
Width: 1000
VWidth: 0
Flags: H
LayerCount: 2
Back
SplineSet
526.221679688 659.751953125 m 1
 526.483398438 108.983398438 l 2
 526.483398438 105.452148438 531.424804688 52.8193359375 473.412109375 52.8193359375 c 2
EndSplineSet
Fore
SplineSet
440 660 m 1
 612 660 l 1
 612 159 l 2
 612 61.889096409 565.364356304 -33 440 -33 c 1
 440 660 l 1
EndSplineSet
EndChar

StartChar: uni062D
Encoding: 1581 1581 1
Width: 1000
VWidth: 0
Flags: HWO
LayerCount: 2
Back
SplineSet
503.6328125 -94.9296875 m 1
 503.6328125 -94.9296875 l 1
584.141601562 331.440429688 m 1
 584.141601562 331.440429688 l 1
642.833007812 -238.53515625 m 1
 402.47265625 -238.422851562 l 2
 353.530273438 -239.265625 317.764648438 -203.99609375 317.801757812 -158.372070312 c 2
 317.658203125 -43.044921875 l 2
 317.608398438 2.7509765625 358.1640625 52.57421875 409.5078125 52.521484375 c 2
 655.309570312 52.521484375 l 2
 673.782800008 52.0199102599 682.67600563 74.0060958051 682.1953125 83.0498046875 c 1
 640.741210938 83.2080078125 605.44921875 115.211914062 575.213867188 148.44140625 c 0
 536.340820312 191.198242188 491.860351562 267.147460938 380.987304688 309.603515625 c 9
EndSplineSet
Fore
SplineSet
643.356843401 -153.000740336 m 1
 642.643156599 -324.999259664 l 1
 402.599609375 -325.002929688 l 2
 308.858590888 -325.004362893 232 -251.482190316 232 -158 c 2
 232 -43 l 2
 232 45.6406044759 301.430956056 139 410 139 c 2
 503.575644398 139 l 1
 458.50982751 191.697790783 430.977684562 239.139066476 350.565279622 269.565381859 c 1
 411.434720378 430.434618141 l 1
 548.081717554 378.730348939 611.233892945 276.061253783 638.701836988 245.77608471 c 0
 682.447095511 197.656300335 729.89852463 209 768 209 c 1
 768 123 l 0
 768 123 783.820150332 -33 635 -33 c 2
 404 -33 l 1
 404 -50.5466918945 l 1
 404 -128.546875 l 1
 404 -152.007558413 l 1
 643.356843401 -153.000740336 l 1
EndSplineSet
EndChar

StartChar: uni062F
Encoding: 1583 1583 2
Width: 1000
VWidth: 0
Flags: HW
LayerCount: 2
Back
SplineSet
472.291015625 329.643554688 m 17
 543.9453125 293.192382812 652.177734375 233.116210938 658.130859375 103.891601562 c 4
 658.603515625 80.5166015625 643.462890625 52.4052734375 605.6640625 52.4052734375 c 2
 341.859375 52.4052734375 l 1
EndSplineSet
Fore
SplineSet
433.539630787 253.079261574 m 1
 510.460369213 406.920738426 l 1
 581.544959038 371.378443513 735.382809639 291.268512255 743.907127403 107.995680344 c 0
 743.966096551 106.727843651 744 104.939292682 744 104 c 0
 744 87.198623275 741.216243788 69.9987988112 734.480701016 52.4285506363 c 0
 717.388197404 7.84127080543 669.256433462 -34 606 -34 c 0
 342 -34 l 1
 342 138 l 1
 564.795951294 138 l 1
 547.185519374 186.71892387 491.938124004 223.880014966 433.539630787 253.079261574 c 1
EndSplineSet
EndChar

StartChar: uni0631
Encoding: 1585 1585 3
Width: 1000
VWidth: 0
Flags: HW
LayerCount: 2
Back
SplineSet
543.403320312 187.49609375 m 1
 543.403320312 -1.0576171875 l 2
 543.403320312 -83.1875 484.76953125 -147.631835938 403.9453125 -147.631835938 c 2
 302.1953125 -147.631835938 l 1
697.8046875 52.84765625 m 1
 572.575195312 52.84765625 l 1
EndSplineSet
Fore
SplineSet
457 187 m 1
 629 187 l 1
 629 -31 l 0
 629 -154.152547721 536.574291645 -264 404 -264 c 0
 302 -264 l 1
 302 -92 l 1
 404 -92 l 0
 433.425708355 -92 457 -71.8474522786 457 -31 c 0
 457 187 l 1
EndSplineSet
EndChar

StartChar: uni066E
Encoding: 1646 1646 4
Width: 1000
VWidth: 0
Flags: HW
LayerCount: 2
Back
SplineSet
-34.5185546875 621.15625 m 0,0,1
780.833007812 300.048828125 m 1,25,-1
 780.833007812 105.099609375 l 2,26,27
 780.833007812 79.1865234375 753.752929688 52.9375 728.670898438 52.9375 c 2,28,-1
 337.190429688 52.9375 l 2,29,30
 273.879882812 52.9375 219.166992188 99.615234375 219.166992188 159.896484375 c 2,31,-1
 219.166992188 300.048828125 l 1
EndSplineSet
Fore
SplineSet
-35 621 m 1
695 300 m 1
 867 300 l 1
 867 105 l 0
 867 62.1922055761 846.997768824 29.9718549928 824.797625157 8.05272580279 c 0
 802.608359025 -13.8556635424 771.033152662 -33 729 -33 c 0
 337 -33 l 0
 234.672606807 -33 133 43.8336794639 133 160 c 0
 133 300 l 1
 305 300 l 1
 305 160 l 0
 305 156.166320536 313.327393193 139 337 139 c 0
 695 139 l 1
 695 300 l 1
EndSplineSet
EndChar

StartChar: uni0633
Encoding: 1587 1587 5
Width: 1000
VWidth: 0
Flags: HW
LayerCount: 2
Back
SplineSet
631.224609375 51.80859375 m 2
 661.975585938 51.36328125 684.341796875 74.3232421875 684.341796875 103.565429688 c 2
 684.341796875 375.62890625 l 1
501.24609375 -96.8984375 m 2
 501.19921875 -126.155273438 478.881835938 -148.84375 448.120117188 -148.655273438 c 2
 181.083007812 -148.16015625 l 2
 153.732421875 -148.4375 132.359375 -120.717773438 132.359375 -92.083984375 c 2
 132.612304688 186.248046875 l 1
782.458984375 482.321289062 m 1
 782.458984375 482.321289062 l 1
590.173828125 482.7578125 m 1
 590.173828125 482.7578125 l 1
685.19921875 576.91015625 m 1
 685.19921875 576.91015625 l 1
867.620117188 375.772460938 m 1
 867.640625 103.701171875 l 2
 867.640625 74.458984375 845.276367188 51.9443359375 814.499023438 51.9443359375 c 2
 732.237304688 51.9443359375 l 1
EndSplineSet
Fore
SplineSet
415 378 m 1
 587 378 l 1
 587 -127 l 0
 587 -162.28359576 573.600299539 -196.702747748 549.32907663 -222.232075887 c 0
 523.377694078 -249.528655186 486.275574743 -265 448 -265 c 0
 181 -265 l 0
 142.151652082 -265 109.565496477 -247.233511053 87.8036984081 -225.160915212 c 0
 61.4215989825 -198.402031767 46 -162.506661281 46 -123 c 0
 46 185 l 1
 218 185 l 1
 218 -93 l 1
 415 -93 l 1
 415 378 l 1
862 376 m 1
 1034 376 l 1
 1034 104 l 0
 1034 67.2263178709 1019.21598947 32.2531461973 994.2321711 7.10459966803 c 0
 968.149334897 -19.1502109507 931.787272478 -34 894 -34 c 0
 792 -34 l 1
 792 138 l 1
 862 138 l 1
 862 376 l 1
638 376 m 1
 810 376 l 1
 810 104 l 0
 810 67.9377921245 795.994241827 32.807591398 770.74084139 7.12527924628 c 0
 744.874527631 -19.1803561417 708.474779103 -34 671 -34 c 0
 579 -34 l 1
 579 138 l 1
 638 138 l 1
 638 376 l 1
EndSplineSet
EndChar

StartChar: uni0635
Encoding: 1589 1589 6
Width: 1000
VWidth: 0
Flags: HW
LayerCount: 2
Back
SplineSet
459 378 m 5
 459 -127 l 6
 459 -156 437 -179 406 -179 c 6
 139 -179 l 6
 112 -179 90 -152 90 -123 c 6
 90 185 l 5
513.178710938 69.1083984375 m 0
 617.337890625 212.692382812 717.419921875 362.061523438 833.349609375 319.162109375 c 1
 882.998046875 298.56640625 907.951171875 253.108398438 909.5546875 171.109375 c 1
 912.368164062 103.918945312 l 2
 913.586914062 74.7001953125 890.00390625 52.1630859375 859.227539062 52.1630859375 c 2
 457.365234375 52.1630859375 l 1
457.342773438 276.90234375 m 1
 457.342773438 -86.58203125 l 2
 457.342773438 -115.838867188 434.971679688 -138.526367188 404.216796875 -138.338867188 c 2
 137.171875 -136.735351562 l 2
 108.7109375 -136.735351562 88.4482421875 -110.041992188 88.4482421875 -80.65234375 c 2
 87.5859375 197.6875 l 1
548.530273438 386.97265625 m 1
 548.530273438 386.97265625 548.540039062 386.97265625 548.530273438 386.97265625 c 1
EndSplineSet
Fore
SplineSet
506.719845272 138 m 1
 510.283001623 142.950465123 l 0
 592.919771867 257.753457781 718.78210758 471.592413087 914.611201451 399.000593808 c 1
 1007.77874464 359.870225668 1043.59513406 270.648128 1045.96871044 173.331496622 c 1
 1047.95577293 106.764903254 l 1
 1049.23938296 69.5402123271 1034.64271734 33.1724773989 1009.51776426 7.52885913842 c 0
 983.286465574 -19.2439434822 946.722141191 -34 909 -34 c 0
 477 -34 l 1
 477 138 l 1
 506.719845272 138 l 1
720.89720551 138 m 1
 874.946767275 138 l 1
 874.031289563 168.668503378 l 1
 872.445200916 233.698137885 859.695454826 235.040229504 851.416652442 238.950014743 c 1
 836.452957172 243.790452138 797.166951919 233.90831858 720.89720551 138 c 1
371 277 m 1
 543 277 l 1
 543 -129 l 0
 543 -164.014270914 529.39710766 -198.86514702 504.571563675 -224.070387676 c 0
 477.546719526 -251.508565904 440.445350599 -265 404 -265 c 0
 137 -265 l 0
 98.000285896 -265 64.3890342456 -247.073724551 42.228749485 -223.958285217 c 0
 16.0588429748 -196.660401059 2 -160.94742456 2 -123 c 0
 2 198 l 1
 174 198 l 1
 174 -93 l 1
 371 -93 l 1
 371 277 l 1
EndSplineSet
EndChar

StartChar: uni0637
Encoding: 1591 1591 7
Width: 1000
VWidth: 0
Flags: HW
LayerCount: 2
Back
SplineSet
360.071289062 69.6875 m 0
 464.223632812 213.263671875 564.313476562 362.633789062 680.234375 319.734375 c 1
 729.891601562 299.137695312 754.836914062 253.6796875 756.440429688 171.680664062 c 1
 759.25390625 104.491210938 l 2
 760.473632812 75.271484375 736.897460938 52.734375 706.12109375 52.734375 c 2
 240.701171875 52.734375 l 1
373.306640625 660.705078125 m 1
 373.306640625 87.8330078125 l 1
EndSplineSet
Fore
SplineSet
373.719845272 139 m 1
 377.283001623 143.950465123 l 0
 459.919771867 258.753457781 585.78210758 472.592413087 781.611201451 400.000593808 c 1
 875.687799142 360.488422777 909.356903029 270.060725045 911.953125948 174.958615139 c 1
 914.934660234 107.377171322 l 1
 916.233735205 69.703997172 902.146043048 34.3594961149 877.32435921 8.8317957401 c 0
 850.486691101 -18.7692306347 813.390715482 -33 776 -33 c 0
 241 -33 l 1
 241 139 l 1
 373.719845272 139 l 1
587.89720551 139 m 1
 741.372229266 139 l 1
 740.046227931 169.056030269 l 1
 738.406012074 236.304880393 725.894495578 236.411664488 718.405285118 239.95369183 c 1
 703.462741132 244.787287235 664.166136357 234.907293021 587.89720551 139 c 1
287 661 m 1
 459 661 l 1
 459 88 l 1
 287 88 l 1
 287 661 l 1
EndSplineSet
EndChar

StartChar: uni0639
Encoding: 1593 1593 8
Width: 1000
VWidth: 0
Flags: HW
LayerCount: 2
Back
SplineSet
428.028320312 422.493164062 m 5
 428.028320312 422.493164062 l 5
665.436523438 -220.208007812 m 1
 376.9609375 -220.087890625 l 2
 353.31640625 -220.379882812 334.817382812 -200.16796875 334.66796875 -173.01171875 c 2
 334.529296875 4.0048828125 l 1
 335.72265625 30.39453125 348.650390625 52.412109375 379.270507812 52.47265625 c 2
 665.470703125 52.787109375 l 1
626.236328125 254.87109375 m 0
 609.493164062 262.072265625 593.373046875 267.813476562 578.032226562 272.177734375 c 0
 421.990234375 316.409179688 345.706054688 216.967773438 496.974609375 53.337890625 c 0
EndSplineSet
Fore
SplineSet
665 -134 m 1
 665 -306 l 1
 377 -306 l 0
 342.794353407 -306 310.107871221 -291.696490959 287.276219927 -268.610859668 c 0
 261.496326222 -242.544189626 249 -207.564573884 249 -173 c 0
 249 5.65323497632 l 1
 250.10762166 34.451398125 255.721317431 65.3656996544 281.890988981 95.4222182056 c 0
 306.371316587 123.538483226 344.239427842 138 379 138 c 0
 665 138 l 1
 665 -34 l 1
 421 -34 l 1
 421 -134 l 1
 665 -134 l 1
528.633497907 112.125964536 m 2
 497 83 497.735662742 83.6773480125 497 83 c 2
 433.733004186 24.7480709274 l 1
 349.439839365 116.298263184 288.370062807 232.102402357 357.572159069 329.160753963 c 0
 363.692072287 337.744145522 370.690135651 345.611945702 378.290052549 352.599053208 c 0
 439.823244919 409.170596823 524.470420552 406.259551093 600.709061003 384.949808077 c 1
 620.381562571 379.615395312 640.496459921 372.036208428 658.744483252 364.522316469 c 1
 593.255516748 205.477683531 l 1
 577.459533971 211.981911733 565.667364543 216.28343453 555.246554525 219.062317202 c 1
 531.084159634 225.877351658 514.179801463 227.013036255 503.367303128 226.244984049 c 1
 508.699200755 209.554720039 525.111924374 179.433596067 560.266995814 141.251929073 c 1
 528.633497907 112.125964536 l 2
EndSplineSet
EndChar

StartChar: uni0644
Encoding: 1604 1604 9
Width: 1000
VWidth: 0
Flags: HW
LayerCount: 2
Back
SplineSet
683.662109375 695.625976562 m 1
 683.662109375 -41.7490234375 l 2
 683.662109375 -68.6650390625 664.141601562 -96.23828125 629.978515625 -96.23828125 c 2
 370.5078125 -96.7236328125 l 2
 337.94140625 -96.7236328125 316.479492188 -76.541015625 316.479492188 -44.404296875 c 2
 316.337890625 144.840820312 l 1
EndSplineSet
Fore
SplineSet
598 696 m 1
 770 696 l 1
 770 -42 l 0
 770 -76.4443080616 757.715266944 -110.343296823 733.242779561 -137.130749229 c 0
 708.409924487 -164.312658162 670.60662971 -182 630 -182 c 0
 371 -182 l 0
 335.684228303 -182 297.944998497 -169.806611001 269.902470063 -141.912159282 c 0
 242.902673392 -115.054933252 230 -78.1146810592 230 -43 c 0
 230 146 l 1
 402 146 l 1
 402 -10 l 1
 598 -10 l 1
 598 696 l 1
EndSplineSet
EndChar

StartChar: uni0643
Encoding: 1603 1603 10
Width: 1000
VWidth: 0
Flags: HW
LayerCount: 2
Back
SplineSet
688.07421875 659.198242188 m 1
 688.07421875 107.220703125 l 2
 688.07421875 80.3056640625 668.552734375 52.732421875 634.389648438 52.732421875 c 2
 311.92578125 52.732421875 l 1
549.452148438 429.748046875 m 1
 449.665039062 429.748046875 l 2
 429.376953125 429.694335938 434.84765625 421.075195312 438.853515625 412.265625 c 2
 474.736328125 336.1796875 l 2
 478.62890625 326.737304688 484.815429688 318.295898438 467.515625 318.723632812 c 2
 356.866210938 318.723632812 l 1
EndSplineSet
Fore
SplineSet
602 659 m 1
 774 659 l 1
 774 107 l 0
 774 73.2392463579 762.200437953 40.0588088239 738.728232439 13.5217097349 c 0
 713.907464588 -14.5400408123 675.48909249 -33 634 -33 c 0
 312 -33 l 1
 312 139 l 1
 602 139 l 1
 602 659 l 1
563.874898547 341.004490998 m 1
 578.335215739 261.12083607 484.377145548 233 468 233 c 0
 357 233 l 1
 357 371.601126908 l 1
 340.902988737 462.014631776 427.129713273 516 450 516 c 0
 549 516 l 1
 549 381 l 0
 563.874898547 341.004490998 l 1
EndSplineSet
EndChar

StartChar: uni0645
Encoding: 1605 1605 11
Width: 1000
VWidth: 0
Flags: HW
LayerCount: 2
Back
SplineSet
290.69921875 52.8154296875 m 1
 385.392578125 52.8154296875 l 1
 426.880859375 60.54296875 442.112304688 80.9521484375 443.01953125 107.125 c 2
 443.01953125 238.025390625 l 2
 442.360351562 341.580078125 570.024414062 371.125976562 636.584960938 300.690429688 c 0
 784.111328125 144.573242188 681.637695312 52.6962890625 555.124023438 52.6962890625 c 2
 489.834960938 52.9072265625 l 1
EndSplineSet
Fore
SplineSet
445.066650065 -21.4578772621 m 1
 425.803605801 -29.5229407787 405.206771662 -33 385 -33 c 0
 291 -33 l 1
 291 139 l 1
 357 139 l 1
 357 236.689183264 l 1
 356.854391076 292.841214024 377.132630358 338.783580457 411.706753269 372.225507638 c 0
 490.614065554 448.548849182 620.689683877 442.415693027 699.259203038 360.328135694 c 1
 758.869007624 297.496179509 795.568951219 232.738338395 795.888225883 162.674582292 c 0
 796.54972912 17.5099119511 652.668257559 -33 555 -33 c 0
 490 -33 l 1
 490 59 l 0
 490 60 445.066650065 -21.4578772621 445.066650065 -21.4578772621 c 1
529 139 m 1
 555 139 l 0
 622.700305595 139 623.890011687 161.890800844 623.890011687 161.890800844 c 0
 623.866091386 167.140030953 618.399649092 195.653074223 574.740796962 241.671864306 c 1
 559.281907033 257.822943337 535.257625433 252.435348261 531.288026506 248.595741437 c 0
 530.501849013 247.835308828 528.903241676 248.476317702 529 238.413451982 c 1
 529 139 l 1
EndSplineSet
EndChar

StartChar: uni0647
Encoding: 1607 1607 12
Width: 1000
VWidth: 0
Flags: HW
LayerCount: 2
Back
SplineSet
638.78125 363.875976562 m 1
 638.78125 105.115234375 l 2
 638.78125 77.28515625 615.405273438 52.8740234375 586.977539062 52.8740234375 c 2
 446.658203125 52.8740234375 l 2
 374.659179688 52.8740234375 332.454101562 128.799804688 384.103515625 185.91015625 c 1
 452.823242188 250.702148438 509.328125 286.524414062 554.538085938 394.806640625 c 0
EndSplineSet
Fore
SplineSet
636 364 m 1
 725 364 l 1
 725 105 l 0
 725 66.5311375104 708.847210115 32.6104647973 685.096317525 8.48019662846 c 0
 660.843696115 -16.1598145286 626.313355044 -33 587 -33 c 0
 447 -33 l 0
 401.912701435 -33 359.825451021 -16.511145256 328.668346831 11.7093213532 c 0
 308.069402299 30.3667621351 292.127696107 54.1267203755 283.133119414 81.199447313 c 0
 265.165106207 135.281271484 278.559373288 198.024487291 320.466121869 243.960730927 c 0
 321.861150173 245.489896568 323.909968539 247.543133499 325.030343126 248.598558835 c 0
 396.584965747 316.00508739 433.063865304 337.530003263 467.420429579 409.671750719 c 0
 470.161552695 415.427547777 472.893818572 421.545164572 475.615384615 428.076923077 c 1
 557.769230769 393.846153846 l 0
 558.692307692 393.461538462 636 364 636 364 c 1
553 228.6154954 m 1
 521.170579888 192.03065591 489.984022156 166.2952034 459.875014818 139 c 1
 553 139 l 1
 553 228.6154954 l 1
EndSplineSet
EndChar

StartChar: uni0648
Encoding: 1608 1608 13
Width: 1000
VWidth: 0
Flags: HW
LayerCount: 2
Back
SplineSet
729.676757812 52.431640625 m 1
 441.39453125 52.431640625 l 2
 380.485351562 53.4951171875 334.228515625 103.455078125 337.3125 155.423828125 c 1
 352.953125 335.272460938 600.447265625 387.680664062 601.015625 233.346679688 c 2
 601.015625 -0.734375 l 2
 601.015625 -74.7265625 545.721679688 -147.471679688 462.784179688 -147.471679688 c 2
 270.323242188 -147.471679688 l 1
EndSplineSet
Fore
SplineSet
514.930335342 -34 m 1
 441 -34 l 0
 332.494479249 -34 245.035533267 54.0946183767 251.219615358 161.285374607 c 1
 265.22293841 318.82275895 395.189469302 409.569001149 510.259290547 409.924355853 c 0
 551.728672149 410.052420185 597.775170196 397.8838645 633.951912967 363.995816917 c 0
 669.463086396 330.731231919 687 282.301912334 687 233 c 0
 687 -31 l 0
 687 -143.787090006 601.696165781 -263 463 -263 c 0
 270 -263 l 1
 270 -91 l 1
 463 -91 l 0
 489.470610697 -91 513.156144151 -68.1401716237 514.930335342 -34 c 1
515 138 m 1
 515 233 l 0
 515 234.926020492 514.905333479 236.467168588 514.771910876 237.727090886 c 1
 489.732667893 240.46587526 430.116631651 212.238924133 422.916645271 149.936017835 c 1
 423.793151568 146.331258801 430.694844171 138 441 138 c 0
 515 138 l 1
EndSplineSet
EndChar

StartChar: uni0649
Encoding: 1609 1609 14
Width: 1000
VWidth: 0
Flags: HW
LayerCount: 2
Back
SplineSet
739.353515625 52.8046875 m 1
 600.854492188 52.9072265625 l 2
 556.342773438 53.083984375 531.909179688 16.6259765625 564.016601562 -24.9404296875 c 1
 674.627929688 -158.556640625 l 1
 693.836914062 -177.765625 682.213867188 -221.112304688 632.034179688 -221.112304688 c 2
 401.974609375 -221.112304688 l 2
 337.9140625 -221.112304688 260.646484375 -187.080078125 260.646484375 -95.6669921875 c 2
 260.646484375 100.263671875 l 1
EndSplineSet
Fore
SplineSet
739 181 m 1
 739 9 l 1
 682.300351675 9 l 1
 741.538039268 -62.5121634011 l 1
 760.185193188 -85.5468829498 768.500330101 -111.700857644 768.660130709 -138.424343447 c 0
 768.742145344 -152.139666315 766.532244448 -166.046665565 761.82802314 -179.535443861 c 0
 742.895979413 -233.820759925 687.546243136 -265 632 -265 c 0
 402 -265 l 0
 315.137135202 -265 175 -210.467849721 175 -54 c 0
 175 142 l 1
 347 142 l 1
 347 -54 l 0
 347 -79.5321502795 360.862864798 -93 402 -93 c 0
 543.445916982 -93 l 1
 497.716487419 -37.79510305 l 1
 465.800264756 0.891227450687 449.480684954 60.3536238189 477.899732336 112.45678475 c 0
 485.909348098 127.141523949 496.670797659 139.654694715 508.756100973 149.541635277 c 0
 536.053439484 171.873483833 569.14557274 181 601 181 c 0
 739 181 l 1
EndSplineSet
EndChar

StartChar: uni0661
Encoding: 1633 1633 15
Width: 1000
VWidth: 0
Flags: HW
LayerCount: 2
Back
SplineSet
500 659.485351562 m 1
 500 0.2412109375 l 1
EndSplineSet
Fore
SplineSet
414 659 m 1
 586 659 l 1
 586 0 l 1
 414 0 l 1
 414 659 l 1
EndSplineSet
EndChar

StartChar: uni0662
Encoding: 1634 1634 16
Width: 1000
VWidth: 0
Flags: HW
LayerCount: 2
Back
SplineSet
612.912109375 604.810546875 m 1
 438.859375 603.577148438 l 2
 409.587890625 603.374023438 387.087890625 581.212890625 387.087890625 550.451171875 c 2
 387.087890625 -0.46484375 l 1
EndSplineSet
Fore
SplineSet
613 690 m 1
 613 518 l 1
 473 518 l 1
 473 0 l 1
 301 0 l 1
 301 550 l 0
 301 588.572475891 316.478249117 625.623828884 343.716619261 651.807495116 c 0
 368.729415736 675.851764688 403.025072607 690 439 690 c 0
 613 690 l 1
EndSplineSet
EndChar

StartChar: uni0663
Encoding: 1635 1635 17
Width: 1000
VWidth: 0
Flags: HW
LayerCount: 2
Back
SplineSet
683.720703125 659.637695312 m 1
 683.720703125 477.060546875 l 2
 683.720703125 447.818359375 661.372070312 425.311523438 630.594726562 425.303710938 c 2
 548.34765625 425.303710938 l 1
500.489257812 659.501953125 m 1
 500.489257812 476.91796875 l 2
 500.489257812 447.67578125 478.139648438 425.17578125 447.36328125 425.17578125 c 2
 365.040039062 425.162109375 l 1
316.279296875 659.833984375 m 1
 316.279296875 0.212890625 l 1
EndSplineSet
Fore
SplineSet
658 660 m 1
 830 660 l 1
 830 477 l 0
 830 441.71640424 816.600299539 407.297252252 792.32907663 381.767924113 c 0
 766.377694078 354.471344814 729.275574743 339 691 339 c 0
 578 339 l 1
 578 511 l 1
 658 511 l 1
 658 660 l 1
444 660 m 1
 616 660 l 1
 616 477 l 0
 616 441.71640424 602.600299539 407.297252252 578.32907663 381.767924113 c 0
 552.377694078 354.471344814 515.275574743 339 477 339 c 0
 365 339 l 1
 365 511 l 1
 444 511 l 1
 444 660 l 1
230 660 m 1
 402 660 l 1
 402 0 l 1
 230 0 l 1
 230 660 l 1
EndSplineSet
EndChar

StartChar: uni0664
Encoding: 1636 1636 18
Width: 1000
VWidth: 0
Flags: HW
LayerCount: 2
Back
SplineSet
545.6796875 607.766601562 m 1
 389.086914062 492.010742188 l 1
 362.237304688 468.737304688 337.690429688 456.63671875 381.3359375 423.721679688 c 1
 509.259765625 335.650390625 l 1
 375.08984375 142.567382812 l 2
 354.7734375 114.236328125 317.661132812 52.73828125 372.547851562 52.9990234375 c 2
 656.146484375 52.396484375 l 1
EndSplineSet
Fore
SplineSet
494.894757019 677.168303 m 1
 597.105242981 538.831697 l 1
 485.603831122 456.448488238 l 1
 557.721478768 406.867605481 l 0
 596.187413572 380.422275304 606.77168806 326.026833592 579.642580168 286.952819987 c 0
 476.66490616 138.634229812 l 1
 656.303885029 137.999463102 l 1
 655.696114971 -33.9994631023 l 1
 372.848057011 -33 l 1
 320.184844843 -33 258.09685125 13.0300284731 258.1634008 75.5393279915 c 0
 258.229909079 138.00986288 290.29763333 172.281988933 304.66824918 192.494867059 c 1
 389.083944024 314.078666349 l 1
 332.278521232 353.132394519 l 0
 296.201647737 377.985351815 243.371530934 451.258627709 290.30943438 517.34158362 c 0
 309.796410896 544.77691659 326.642612364 553.032108434 338.227632247 561.414249028 c 1
 494.894757019 677.168303 l 1
EndSplineSet
EndChar

StartChar: uni0665
Encoding: 1637 1637 19
Width: 1000
VWidth: 0
Flags: HW
LayerCount: 2
Back
SplineSet
556.603515625 567.333984375 m 0
 682.04296875 490.165039062 790.403320312 41.8525390625 500.768554688 40.046875 c 0
 211.208007812 38.248046875 316.934570312 483.897460938 438.612304688 564.353515625 c 0
 476.538085938 589.44921875 519.053710938 590.419921875 556.603515625 567.333984375 c 0
EndSplineSet
Fore
SplineSet
601.818729093 640.398873394 m 0
 711.912454287 572.581138674 770.090687638 403.006560315 771.232842248 256.591957913 c 0
 772.295376565 120.384006523 700.520803706 -44.6260396172 501.593089344 -45.9979548886 c 0
 404.170157842 -46.6698371749 323.897304751 -4.43679578774 278.64149634 64.5038464029 c 0
 161.130109751 243.515353225 256.244392477 547.001009843 391.787114258 635.881483142 c 1
 455.09143482 677.529062459 536.374404511 680.009911957 601.818729093 640.398873394 c 0
512.106740816 493.644690668 m 0
 501.768134939 499.690220808 498.919374468 500.478048914 486.212885742 492.118516858 c 1
 439.661893237 461.593275871 370.504617432 237.991405305 422.428808716 158.892451645 c 0
 434.775907331 140.083442645 450.675556443 125.654980032 500.406910656 125.997954889 c 0
 575.972939184 126.519099913 599.9562047 163.192122624 599.238075355 255.250256931 c 0
 598.408722656 361.566288658 535.611695236 478.515307109 512.106740816 493.644690668 c 0
EndSplineSet
EndChar

StartChar: uni0666
Encoding: 1638 1638 20
Width: 1000
VWidth: 0
Flags: HW
LayerCount: 2
Back
SplineSet
340.020507812 604.7734375 m 1
 608.283203125 603.546875 l 2
 637.479492188 603.418945312 659.979492188 581.174804688 659.979492188 550.420898438 c 2
 659.979492188 -0.501953125 l 1
EndSplineSet
Fore
SplineSet
340 518 m 1
 340 690 l 1
 608 690 l 0
 644.773682129 690 679.746853803 675.215989472 704.895400332 650.2321711 c 0
 731.150210951 624.149334897 746 587.787272478 746 550 c 0
 746 -1 l 1
 574 -1 l 1
 574 518 l 1
 340 518 l 1
EndSplineSet
EndChar

StartChar: uni0667
Encoding: 1639 1639 21
Width: 1000
VWidth: 0
Flags: HW
LayerCount: 2
Back
SplineSet
694.293945312 637.767578125 m 1
 541.913085938 57.0615234375 l 1
 534.764648438 39.4755859375 502.2578125 38.572265625 492.249023438 56.8349609375 c 1
 305.706054688 637.767578125 l 1
EndSplineSet
Fore
SplineSet
610.800142192 659.766572094 m 1
 777.199857808 616.233427906 l 1
 625.199857808 35.2334279057 l 0
 624.401218843 32.1807355452 623.011340816 28.0383219884 622.152401753 25.8296215407 c 0
 612.731583971 1.60466153024 594.971194955 -16.1478565681 577.613082338 -26.4712320607 c 0
 558.181720903 -38.0276290519 538.887014522 -42.0457001851 520.985817288 -42.4663994814 c 0
 488.152242609 -43.2380272995 442.638966372 -31.2349778941 416.822474254 15.2347079186 c 0
 414.168263827 20.0122866867 411.387745571 26.7403330353 410.094797659 30.7790574261 c 0
 224.094797659 611.779057426 l 1
 387.905202341 664.220942574 l 1
 511.204647962 279.07590007 l 1
 610.800142192 659.766572094 l 1
EndSplineSet
EndChar

StartChar: uni0668
Encoding: 1640 1640 22
Width: 1000
VWidth: 0
Flags: HW
LayerCount: 2
Back
SplineSet
305.717773438 6.8583984375 m 1
 458.150390625 587.557617188 l 1
 465.297851562 605.151367188 497.806640625 606.046875 507.814453125 587.783203125 c 1
 694.282226562 6.8583984375 l 1
EndSplineSet
Fore
SplineSet
389.199857808 -14.7665720943 m 1
 222.800142192 28.7665720943 l 1
 374.800142192 609.766572094 l 0
 375.598781157 612.819264455 376.988659184 616.961678012 377.847598247 619.170378459 c 0
 387.268416029 643.39533847 405.028805045 661.147856568 422.386917662 671.471232061 c 0
 441.818279097 683.027629052 461.112985478 687.045700185 479.014182712 687.466399481 c 0
 511.847757391 688.238027299 557.361033628 676.234977894 583.177525746 629.765292081 c 0
 585.831736173 624.987713313 588.612254429 618.259666965 589.905202341 614.220942574 c 0
 775.905202341 33.2209425739 l 1
 612.094797659 -19.2209425739 l 1
 488.795352038 365.92409993 l 1
 389.199857808 -14.7665720943 l 1
EndSplineSet
EndChar

StartChar: uni0669
Encoding: 1641 1641 23
Width: 1000
VWidth: 0
Flags: HW
LayerCount: 2
Back
SplineSet
639.801757812 0.2734375 m 1
 640.02734375 483.705078125 l 1
 620.583007812 616.391601562 488.96484375 627.227539062 425.46875 583.651367188 c 1
 371.162109375 554.57421875 334.41796875 469.663085938 381.794921875 392.984375 c 1
 435.997070312 314.973632812 501.1328125 341.76953125 600.047851562 334.7109375 c 0
EndSplineSet
Fore
SplineSet
554 250.313356132 m 1
 494.07573988 249.963971018 383.823318826 239.279717932 311.291471519 344.047941821 c 0
 310.628430271 345.005668067 309.412985647 346.852463689 308.594207175 348.193866717 c 0
 236.067575908 467.01409241 285.548521674 602.978951033 379.939160999 657.341294729 c 1
 465.373183286 712.660820756 618.100623737 710.617197224 693.062120285 593.449974748 c 0
 714.548041274 559.866791372 726 518.71050939 726 475 c 0
 726 0 l 1
 554 0 l 1
 554 250.313356132 l 1
554 422.315079839 m 1
 554 475 l 0
 554 490.920866256 550.534391442 497.380581752 547.64934827 501.547969208 c 0
 536.487928574 517.670417872 486.538887514 522.08138474 474.242622816 513.493517332 c 0
 471.614382124 511.657920658 467.811191107 509.374232914 465.688890864 508.23447908 c 0
 454.839665355 502.408043159 436.082666511 471.87395706 454.204527229 439.845199103 c 1
 470.302850499 417.98190732 467.064674604 421.893101349 554 422.315079839 c 1
EndSplineSet
EndChar

StartChar: uni06BA
Encoding: 1722 1722 24
Width: 1000
VWidth: 0
Flags: HW
LayerCount: 2
Back
SplineSet
681.9375 187.759765625 m 1
 681.9375 -83.4443359375 l 2
 682.262695312 -109.30078125 659.373046875 -135.450195312 630.64453125 -135.450195312 c 2
 492.05078125 -135.450195312 l 2
 411.485351562 -135.450195312 318.059570312 -72.88671875 318.059570312 -3.064453125 c 2
 318.059570312 187.169921875 l 1
EndSplineSet
Fore
SplineSet
596 188 m 1
 768 188 l 1
 768 -83 l 0
 768 -120.128802188 753.234423244 -152.866250777 730.165384906 -177.515360233 c 0
 706.989083337 -202.279079718 671.964524645 -221 631 -221 c 0
 492 -221 l 0
 386.976542268 -221 253.803025939 -155.299848785 234.012452601 -28.7768784074 c 0
 232.701244289 -20.394202092 232 -11.7606526922 232 -3 c 0
 232 187 l 1
 404 187 l 1
 404 -2.36277648259 l 1
 406.903402295 -11.4861537176 450.565025957 -49 492 -49 c 0
 596 -49 l 1
 596 188 l 1
EndSplineSet
EndChar

StartChar: uni06A1
Encoding: 1697 1697 25
Width: 1000
VWidth: 0
Flags: HW
LayerCount: 2
Back
SplineSet
66.0068359375 98.5361328125 m 1
 66.0068359375 -52.6123046875 l 2
 66.0068359375 -110.30859375 108.076171875 -147.155273438 165.232421875 -147.155273438 c 2
 656.993164062 -147.079101562 l 2
 690.500976562 -146.733398438 711.819335938 -120.192382812 711.68359375 -93.080078125 c 2
 711.90234375 191.303710938 l 2
 711.90234375 318.920898438 569.202148438 344.174804688 497.524414062 297.708984375 c 0
 448.087890625 265.663085938 413.65234375 182.939453125 453.68359375 117.01953125 c 0
 501.022460938 39.0703125 570.610351562 53.3173828125 671.922851562 52.9638671875 c 2
 933.993164062 52.0478515625 l 1
EndSplineSet
Fore
SplineSet
626 -33.6543883967 m 1
 554.311895909 -35.0064100255 444.566888063 -33.9762882099 380.395905543 72.5202359726 c 1
 310.895507941 187.195892016 369.000469504 316.470122158 451.336171836 370.240376742 c 1
 541.405303469 427.784544174 692.709327952 423.411626254 765.86268881 307.569019107 c 0
 786.867515182 274.30665329 798 233.820324306 798 191 c 0
 798 -93 l 0
 798 -128.584006128 784.657677616 -162.653609216 759.966048567 -188.969687544 c 0
 734.962836178 -215.617848116 697.520306269 -233 657 -233 c 0
 165 -233 l 0
 110.61664135 -233 55.1649515768 -211.983838728 18.6274530921 -166.581789874 c 0
 -6.96241638866 -134.783430586 -20 -94.2979912216 -20 -53 c 0
 -20 99 l 1
 152 99 l 1
 152 -53 l 0
 152 -56.4974221223 152.509622226 -58.1644970661 152.687694911 -58.6951812284 c 1
 153.510831983 -59.185051995 157.129823388 -61 165 -61 c 0
 626 -61 l 1
 626 -33.6543883967 l 1
626 138.377854443 m 1
 626 191 l 0
 626 204.964511757 623.108807132 211.361709008 620.628061864 215.41724046 c 0
 611.99389412 229.532409513 567.840687364 239.973604197 544.692678015 225.773391129 c 1
 527.638627284 213.906574813 517.383094863 178.344413358 527.604094457 161.479764027 c 1
 541.771598001 137.967736869 542.962432496 136.757028896 626 138.377854443 c 1
EndSplineSet
EndChar

StartChar: uni06D2
Encoding: 1746 1746 26
Width: 1000
VWidth: 0
Flags: HW
LayerCount: 2
Back
SplineSet
896.846679688 -144.895507812 m 1
 271.095703125 -144.77734375 l 1
 55.3857421875 -137.637695312 67.7802734375 50.75 193.936523438 83.421875 c 0
 304.288085938 112.0078125 292.09765625 158.403320312 316.1328125 192.68359375 c 0
 388.958984375 296.565429688 500.569335938 253.665039062 554.267578125 220.004882812 c 0
EndSplineSet
Fore
SplineSet
599.821941193 292.776024248 m 1
 508.178058807 147.223975752 l 1
 460.490052596 177.249757441 417.370056749 187.184799861 386.605427282 143.897779847 c 1
 381.62217136 134.45457439 345.614959055 34.0327402038 215.856284865 -0.176364809884 c 1
 191.330316377 -6.59983274714 187.884412198 -25.5447659357 189.57667885 -31.9345237582 c 0
 189.57667885 -31.9345237582 193.206461512 -59 271 -59 c 0
 897 -59 l 1
 897 -231 l 1
 271 -231 l 0
 147.281401155 -231 49.074942216 -173.257798611 23.3089177837 -75.9689606214 c 0
 -4.45877821764 28.8779040827 62.213307784 137.385067646 172.143715135 166.17636481 c 1
 254.605270151 187.916229314 190.612608816 164.49653549 245.675112724 242.50174936 c 1
 360.92930598 406.699504136 539.646739542 330.664114176 599.821941193 292.776024248 c 1
EndSplineSet
EndChar

StartChar: space
Encoding: 32 32 27
Width: 1000
VWidth: 0
Flags: HW
LayerCount: 2
Back
SplineSet
21441.0507812 621.15625 m 0
 21345.5634766 588.452148438 21164.8535156 518.624023438 21080.796875 431.55078125 c 1
 21397.4863281 105.393554688 l 2
 21419.3095703 83.5703125 21401.1894531 52.3388671875 21367.3798828 52.3388671875 c 2
 21061.6621094 52.3388671875 l 2
 21032.546875 52.53515625 21012.7314453 78.1640625 21012.9560547 106.263671875 c 2
 21014.6962891 670.732421875 l 1
13699.2929688 98.5361328125 m 1
 13699.2929688 -52.6123046875 l 2
 13699.2929688 -110.30859375 13741.3632812 -147.155273438 13798.5185547 -147.155273438 c 2
 14290.2802734 -147.079101562 l 2
 14323.7880859 -146.733398438 14345.1064453 -120.192382812 14344.9707031 -93.080078125 c 2
 14345.1894531 191.303710938 l 2
 14345.1894531 318.920898438 14202.4892578 344.174804688 14130.8105469 297.708984375 c 0
 14081.375 265.663085938 14046.9384766 182.939453125 14086.9707031 117.01953125 c 0
 14134.3095703 39.0703125 14203.8974609 53.3173828125 14305.2089844 52.9638671875 c 2
 14567.2802734 52.0478515625 l 1
22256.4023438 300.048828125 m 1
 22256.4023438 105.099609375 l 2
 22256.4023438 79.1865234375 22229.3222656 52.9375 22204.2402344 52.9375 c 2
 21812.7597656 52.9375 l 2
 21749.4492188 52.9375 21694.7363281 99.615234375 21694.7363281 159.896484375 c 2
 21694.7363281 300.048828125 l 1
6689.44042969 481.560546875 m 0
 6894.19140625 452.495117188 7061.00976562 291.227539062 7061.00976562 104.837890625 c 0
 7061.00976562 74.59765625 7038.35449219 53.18359375 7009.30273438 53.18359375 c 2
 6435.54492188 53.18359375 l 1
6586.69042969 185.857421875 m 0
 6586.69042969 118.205078125 6641.63378906 63.26171875 6709.28613281 63.26171875 c 0
 6776.93945312 63.26171875 6831.8828125 118.205078125 6831.8828125 185.857421875 c 0
 6831.8828125 253.509765625 6776.93945312 308.453125 6709.28613281 308.453125 c 0
 6641.63378906 308.453125 6586.69042969 253.509765625 6586.69042969 185.857421875 c 0
5909.17285156 397.036132812 m 0
 6156.3828125 397.036132812 6254.23242188 275.333984375 6252.48144531 104.697265625 c 0
 6252.48144531 74.4560546875 6229.82714844 53.04296875 6200.77441406 53.04296875 c 2
 5650.56738281 53.04296875 l 1
5801.71289062 185.716796875 m 0
 5801.71289062 118.063476562 5856.65625 63.1201171875 5924.30957031 63.1201171875 c 0
 5991.96191406 63.1201171875 6046.90527344 118.063476562 6046.90527344 185.716796875 c 0
 6046.90527344 253.369140625 5991.96191406 308.3125 5924.30957031 308.3125 c 0
 5856.65625 308.3125 5801.71289062 253.369140625 5801.71289062 185.716796875 c 0
5122.17578125 387.03125 m 0
 5380.74707031 383.044921875 5492.96386719 257.286132812 5489.1640625 105.389648438 c 0
 5489.1640625 75.1494140625 5466.50976562 52.7578125 5437.45703125 52.7578125 c 2
 4872.99023438 52.7578125 l 1
5044.74609375 103.087890625 m 1
 5044.74609375 199.745117188 l 1
 5055.86914062 307.911132812 5185.65625 329.243164062 5263.22265625 209.809570312 c 0
 5325.70410156 113.6015625 5261.14550781 53.6533203125 5195.49023438 53.12109375 c 0
7501.71777344 448.146484375 m 0
 7760.2890625 444.16015625 7872.50585938 257.171875 7868.70605469 105.274414062 c 0
 7868.70605469 75.0341796875 7846.05175781 52.6435546875 7816.99902344 52.6435546875 c 2
 7252.53222656 52.6435546875 l 1
7424.28808594 102.973632812 m 1
 7424.28808594 199.629882812 l 1
 7435.41113281 307.795898438 7565.19824219 329.127929688 7642.76464844 209.694335938 c 0
 7705.24609375 113.487304688 7640.6875 53.5380859375 7575.03320312 53.005859375 c 0
20620.2558594 375.772460938 m 1
 20620.2763672 103.701171875 l 2
 20620.2763672 74.458984375 20597.9121094 51.9443359375 20567.1347656 51.9443359375 c 2
 20484.8730469 51.9443359375 l 1
20436.9775391 375.62890625 m 1
 20436.9775391 103.565429688 l 2
 20436.9775391 74.3232421875 20414.6142578 51.80859375 20383.8603516 51.80859375 c 2
 20301.5966797 51.80859375 l 1
20253.8818359 377.69140625 m 1
 20253.8818359 -96.8984375 l 2
 20253.8818359 -126.155273438 20231.5175781 -148.84375 20200.7558594 -148.655273438 c 2
 19933.71875 -148.16015625 l 2
 19906.3681641 -148.4375 19884.9951172 -120.717773438 19884.9951172 -92.083984375 c 2
 19885.2480469 186.248046875 l 1
19104.8095703 69.18359375 m 0
 19208.9619141 212.759765625 19309.0507812 362.129882812 19424.9726562 319.229492188 c 1
 19474.6298828 298.633789062 19499.5751953 253.17578125 19501.1777344 171.176757812 c 1
 19503.9921875 103.987304688 l 2
 19505.2109375 74.767578125 19481.6357422 52.23046875 19450.859375 52.23046875 c 2
 18909.3574219 52.23046875 l 1
19048.2304688 277.060546875 m 1
 19047.9287109 97.666015625 l 1
18177.1894531 69.1083984375 m 0
 18281.3486328 212.692382812 18381.4306641 362.061523438 18497.3603516 319.162109375 c 1
 18547.0087891 298.56640625 18571.9619141 253.108398438 18573.5654297 171.109375 c 1
 18576.3789062 103.918945312 l 2
 18577.5976562 74.7001953125 18554.0146484 52.1630859375 18523.2382812 52.1630859375 c 2
 18121.3759766 52.1630859375 l 1
18121.3535156 276.90234375 m 1
 18121.3535156 -86.58203125 l 2
 18121.3535156 -115.838867188 18098.9824219 -138.526367188 18068.2275391 -138.338867188 c 2
 17801.1826172 -136.735351562 l 2
 17772.7216797 -136.735351562 17752.4589844 -110.041992188 17752.4589844 -80.65234375 c 2
 17751.5966797 197.6875 l 1
16161.7792969 52.7294921875 m 1
 16623.9833984 52.955078125 l 2
 16684.5361328 53.068359375 16677.6660156 119.475585938 16658.7861328 135.481445312 c 1
 16379.1064453 420.653320312 l 1
 16344.4990234 451.453125 16350.0654297 496.930664062 16376.3603516 511.44140625 c 1
 16475.0341797 572.36328125 16682.8076172 619.051757812 16720.2265625 619.650390625 c 0
17338.5195312 -238.53515625 m 1
 17098.1591797 -238.422851562 l 2
 17049.2167969 -239.265625 17013.4511719 -203.99609375 17013.4882812 -158.372070312 c 2
 17013.3447266 -43.044921875 l 2
 17013.2949219 2.7509765625 17053.8505859 52.57421875 17105.1943359 52.521484375 c 2
 17350.9960938 52.521484375 l 2
 17357.3623047 52.3486328125 17373.5332031 63.0185546875 17374.8203125 69.173828125 c 0
 17376.3554688 77.625 17378.6269531 69.03125 17377.8818359 83.0498046875 c 1
 17336.4277344 83.2080078125 17301.1357422 115.211914062 17270.9003906 148.44140625 c 0
 17232.0273438 191.198242188 17187.546875 267.147460938 17076.6738281 309.603515625 c 0
15511.5419922 52.5791015625 m 1
 15993.8447266 52.5791015625 l 2
 16000.21875 52.40625 16016.3818359 63.076171875 16017.6689453 69.216796875 c 0
 16019.2119141 77.6669921875 16021.4921875 77.404296875 16020.7392578 91.4306640625 c 1
 15979.2773438 91.595703125 15942.8105469 119.318359375 15910.2363281 148.4921875 c 0
 15867.7353516 186.545898438 15821.1025391 239.987304688 15768.9931641 276.686523438 c 0
 15713.8349609 315.522460938 15659.2490234 328.6015625 15617.9140625 339.000976562 c 0
15245.1054688 -220.208007812 m 1
 14956.6298828 -220.087890625 l 2
 14932.9853516 -220.379882812 14914.4863281 -200.16796875 14914.3369141 -173.01171875 c 2
 14914.1982422 4.0048828125 l 1
 14915.3916016 30.39453125 14928.3193359 52.412109375 14958.9394531 52.47265625 c 2
 15245.1396484 52.787109375 l 1
15205.9052734 254.87109375 m 0
 15189.1621094 262.072265625 15173.0419922 267.813476562 15157.7011719 272.177734375 c 0
 15001.6591797 316.409179688 14925.375 216.967773438 15076.6435547 53.337890625 c 0
15010.0283203 422.493164062 m 1
 15010.0283203 422.493164062 l 1
15936.7988281 417.82421875 m 1
 15936.7988281 417.82421875 l 1
15839.9082031 -139.877929688 m 1
 15839.9082031 -139.877929688 l 1
17199.6328125 -94.9296875 m 1
 17199.6328125 -94.9296875 l 1
17280.1416016 331.440429688 m 1
 17280.1416016 331.440429688 l 1
18212.5410156 386.97265625 m 1
 18212.5410156 386.97265625 18212.5507812 386.97265625 18212.5410156 386.97265625 c 1
19140.4853516 389.147460938 m 1
 19140.4853516 389.147460938 l 1
20537.4589844 482.321289062 m 1
 20537.4589844 482.321289062 l 1
20345.1738281 482.7578125 m 1
 20345.1738281 482.7578125 l 1
20440.1992188 576.91015625 m 1
 20440.1992188 576.91015625 l 1
10874.6806641 604.7734375 m 1
 11142.9443359 603.546875 l 2
 11172.140625 603.418945312 11194.640625 581.174804688 11194.640625 550.420898438 c 2
 11194.640625 -0.501953125 l 1
13087.6884766 604.810546875 m 1
 12913.6357422 603.577148438 l 2
 12884.3642578 603.374023438 12861.8642578 581.212890625 12861.8642578 550.451171875 c 2
 12861.8642578 -0.46484375 l 1
13180.4697266 659.485351562 m 1
 13180.4697266 0.2412109375 l 1
12708.4306641 659.637695312 m 1
 12708.4306641 477.060546875 l 2
 12708.4306641 447.818359375 12686.0820312 425.311523438 12655.3046875 425.303710938 c 2
 12573.0576172 425.303710938 l 1
12525.1992188 659.501953125 m 1
 12525.1992188 476.91796875 l 2
 12525.1992188 447.67578125 12502.8496094 425.17578125 12472.0732422 425.17578125 c 2
 12389.75 425.162109375 l 1
12340.9892578 659.833984375 m 1
 12340.9892578 0.212890625 l 1
23613.734375 615.428710938 m 1
 23438.9824219 487.391601562 l 2
 23400.1162109 459.489257812 23411.8925781 435.943359375 23440.6230469 404.978515625 c 1
 23573.3017578 283.924804688 l 1
 23429.7265625 123.82421875 l 2
 23405.1279297 97.3515625 23393.7197266 70.7138671875 23421.1777344 53.0908203125 c 1
 23734.2978516 52.8720703125 l 1
12100.6416016 607.766601562 m 1
 11944.0488281 492.010742188 l 1
 11917.1992188 468.737304688 11892.6523438 456.63671875 11936.2978516 423.721679688 c 1
 12064.2216797 335.650390625 l 1
 11930.0517578 142.567382812 l 2
 11909.7353516 114.236328125 11872.6230469 52.73828125 11927.5097656 52.9990234375 c 2
 12211.1083984 52.396484375 l 1
9767.98144531 0.2734375 m 1
 9768.20703125 483.705078125 l 1
 9748.76269531 616.391601562 9617.14453125 627.227539062 9553.6484375 583.651367188 c 1
 9499.34179688 554.57421875 9462.59765625 469.663085938 9509.97460938 392.984375 c 1
 9564.17675781 314.973632812 9629.3125 341.76953125 9728.22753906 334.7109375 c 0
10766.7734375 637.767578125 m 1
 10614.3925781 57.0615234375 l 1
 10607.2441406 39.4755859375 10574.7373047 38.572265625 10564.7285156 56.8349609375 c 1
 10378.1855469 637.767578125 l 1
9942.06347656 6.8583984375 m 1
 10094.4960938 587.557617188 l 1
 10101.6435547 605.151367188 10134.1523438 606.046875 10144.1601562 587.783203125 c 1
 10330.6279297 6.8583984375 l 1
11617.2412109 567.333984375 m 0
 11742.6806641 490.165039062 11851.0410156 41.8525390625 11561.40625 40.046875 c 0
 11271.8457031 38.248046875 11377.5722656 483.897460938 11499.25 564.353515625 c 0
 11537.1757812 589.44921875 11579.6914062 590.419921875 11617.2412109 567.333984375 c 0
24794.7685547 -144.895507812 m 1
 24169.0175781 -144.77734375 l 1
 23953.3076172 -137.637695312 23965.7021484 50.75 24091.8583984 83.421875 c 0
 24202.2099609 112.0078125 24190.0195312 158.403320312 24214.0546875 192.68359375 c 0
 24286.8808594 296.565429688 24398.4912109 253.665039062 24452.1894531 220.004882812 c 0
25691.6708984 242.287109375 m 1
 25418.0957031 -34.0205078125 l 1
26391.2949219 180.337890625 m 1
 26002.4667969 179.065429688 l 1
26391.2949219 29.62109375 m 1
 26002.4667969 28.3486328125 l 1
26682.5498047 223.33984375 m 0
 26739.7246094 225.770507812 26787.2587891 175.473632812 26787.4179688 122.159179688 c 0
 26787.4179688 68.845703125 26741.5078125 25.7197265625 26686.2519531 25.44140625 c 0
 26630.9892578 25.44140625 26588.0898438 67.1376953125 26583.5898438 120.676757812 c 0
 26579.0820312 174.202148438 26625.3525391 220.961914062 26682.5498047 223.33984375 c 0
27764.4287109 232.669921875 m 0
 27821.6103516 235.092773438 27869.1376953 184.803710938 27869.2958984 131.489257812 c 0
 27869.2958984 78.1826171875 27823.3789062 35.0498046875 27768.1308594 34.771484375 c 0
 27712.8759766 34.771484375 27669.9677734 76.4677734375 27665.46875 130.006835938 c 0
 27660.9609375 183.532226562 27707.2314453 230.291992188 27764.4287109 232.669921875 c 0
27444.4921875 32.228515625 m 1
 27760.0341797 35.3212890625 l 1
27072.6396484 206.337890625 m 0
 27109.9326172 249.756835938 27179.1328125 250.140625 27218.1708984 213.84765625 c 0
 27257.1132812 177.442382812 27257.2558594 114.443359375 27219.7216797 73.8916015625 c 0
 27181.984375 33.53515625 27122.2216797 30.66796875 27080.0429688 63.943359375 c 0
 27037.8808594 97.2109375 27035.3085938 162.94140625 27072.6396484 206.337890625 c 0
27000.5507812 -164.25 m 1
 27213.7998047 68.353515625 l 1
23109.6943359 -222.78125 m 1
 22672.3369141 -222.666992188 l 1
 22456.6279297 -215.524414062 22469.0214844 -27.1357421875 22595.1767578 5.5361328125 c 0
 22705.5380859 34.109375 22696.0341797 78.783203125 22717.3818359 114.796875 c 0
 22770.6582031 204.672851562 22879.7470703 198.776367188 22920.34375 121.260742188 c 0
 22946.3583984 71.57421875 22981.3085938 53.2080078125 23035.6621094 53.212890625 c 2
 23109.6767578 53.21875 l 1
-5519.65527344 680.475585938 m 1
 -5388.70117188 230.705078125 l 1
-5314.7265625 659.807617188 m 1
 -5314.7265625 106.623046875 l 2
 -5314.7265625 74.345703125 -5336.83886719 52.791015625 -5365.24707031 52.791015625 c 2
 -5600.53027344 52.791015625 l 1
-5351.11523438 263.143554688 m 1
 -5451.71777344 262.408203125 l 1
 -5452.89550781 262.408203125 l 1
 -5452.82226562 261.23046875 l 1
 -5451.44140625 210.372070312 -5464.84570312 175.916992188 -5486.6015625 150.028320312 c 0
 -5508.35839844 124.138671875 -5538.57910156 106.78515625 -5571.08691406 90.564453125 c 1
 -5570.57226562 88.3564453125 l 1
 -5490.64941406 89.9755859375 l 1
 -5490.35546875 90.048828125 l 1
 -5490.06054688 90.1220703125 l 1
 -5399.43066406 140.771484375 -5360.58691406 198.916015625 -5349.93847656 261.744140625 c 2
 -5349.71679688 263.142578125 l 1
 -5351.11523438 263.142578125 l 1
 -5351.11523438 263.143554688 l 1
4833.96289062 52.8046875 m 1
 4695.46386719 52.9072265625 l 2
 4650.95214844 53.083984375 4626.51855469 16.6259765625 4658.62597656 -24.9404296875 c 1
 4769.23730469 -158.556640625 l 1
 4788.44628906 -177.765625 4776.82324219 -221.112304688 4726.64355469 -221.112304688 c 2
 4496.58398438 -221.112304688 l 2
 4432.5234375 -221.112304688 4355.25585938 -187.080078125 4355.25585938 -95.6669921875 c 2
 4355.25585938 100.263671875 l 1
3752.11816406 52.6884765625 m 1
 4219.84375 52.6884765625 l 1
4170.37011719 307.239257812 m 0
 3887.13867188 392.618164062 3795.26171875 255.54296875 3993.36621094 63.7333984375 c 0
2356.95898438 52.8154296875 m 1
 2451.65234375 52.8154296875 l 1
 2493.140625 60.54296875 2508.37207031 80.9521484375 2509.27929688 107.125 c 2
 2509.27929688 238.025390625 l 2
 2508.62011719 341.580078125 2636.28417969 371.125976562 2702.84472656 300.690429688 c 0
 2850.37109375 144.573242188 2747.89746094 52.6962890625 2621.38378906 52.6962890625 c 2
 2556.09472656 52.9072265625 l 1
3676.94238281 52.8037109375 m 1
 3565.25292969 52.8271484375 l 2
 3539.6484375 52.8271484375 3518.4296875 72.662109375 3518.4296875 98.220703125 c 1
 3514.46289062 180.728515625 l 2
 3511.45507812 243.31640625 3451.27734375 277.256835938 3383.74121094 239.418945312 c 0
 3344.11035156 217.213867188 3305.28808594 190.9609375 3269.82421875 157.325195312 c 1
 3251.30273438 141.27734375 3249.53222656 104.421875 3270.24121094 85.5302734375 c 1
 3385.09667969 -44.2265625 l 1
 3411.82519531 -70.955078125 3381.39746094 -110.4765625 3345.37695312 -110.288085938 c 2
 3079.73925781 -110.288085938 l 1
 3010.984375 -111.49609375 2964.32421875 -54.177734375 2964.32421875 13.755859375 c 2
 2964.32421875 217.1171875 l 1
2295.90039062 53.0771484375 m 1
 2042.51660156 53.0771484375 l 1
2139.59863281 57.931640625 m 1
 2139.59863281 -84.7783203125 l 2
 2139.59863281 -105.793945312 2123.81542969 -135.1171875 2092.99902344 -135.1171875 c 2
 1956.11425781 -135.1171875 l 2
 1874.08398438 -135.1171875 1777.484375 -79.5771484375 1777.484375 3.5654296875 c 2
 1777.484375 186.079101562 l 1
-4827.31542969 659.77734375 m 1
 -4827.31542969 106.592773438 l 2
 -4827.31542969 74.3154296875 -4849.42773438 52.7607421875 -4877.8359375 52.7607421875 c 2
 -5158.05175781 52.7607421875 l 1
-5009.48925781 564.359375 m 1
 -5009.48925781 59.4873046875 l 1
-5722.77050781 658.766601562 m 1
 -5722.77050781 109.366210938 l 2
 -5722.77050781 77.0888671875 -5744.8828125 52.7607421875 -5773.29101562 52.7607421875 c 2
 -5963.17871094 52.7607421875 l 1
-5904.94433594 658.47265625 m 1
 -5904.94433594 157.299804688 l 1
-4485.19921875 69.6875 m 0
 -4381.046875 213.263671875 -4280.95703125 362.633789062 -4165.03613281 319.734375 c 1
 -4115.37890625 299.137695312 -4090.43359375 253.6796875 -4088.83007812 171.680664062 c 1
 -4086.01660156 104.491210938 l 2
 -4084.796875 75.271484375 -4108.37304688 52.734375 -4139.14941406 52.734375 c 2
 -4604.56933594 52.734375 l 1
-4471.96386719 660.705078125 m 1
 -4471.96386719 87.8330078125 l 1
-1871.85253906 376.676757812 m 1
 -1871.828125 104.60546875 l 2
 -1871.828125 75.36328125 -1894.19238281 52.8642578125 -1924.96972656 52.8486328125 c 2
 -2007.23242188 52.8486328125 l 1
-2055.12988281 376.534179688 m 1
 -2055.12988281 104.469726562 l 2
 -2055.12988281 75.228515625 -2077.49414062 52.720703125 -2108.24804688 52.720703125 c 2
 -2190.52539062 52.720703125 l 1
-2237.57714844 376.752929688 m 1
 -2237.55371094 104.680664062 l 2
 -2237.55371094 75.439453125 -2259.91796875 52.939453125 -2290.69433594 52.9248046875 c 2
 -2469.22753906 52.9248046875 l 1
-1361.60058594 376.509765625 m 1
 -1361.57617188 104.438476562 l 2
 -1361.57617188 75.1962890625 -1383.94042969 52.6962890625 -1414.71777344 52.681640625 c 2
 -1702.9609375 52.681640625 l 1
-3530.17773438 52.431640625 m 1
 -3818.45996094 52.431640625 l 1
 -3879.36914062 53.4951171875 -3925.62597656 103.455078125 -3922.54199219 155.423828125 c 1
 -3906.90136719 335.272460938 -3659.40722656 387.680664062 -3658.83886719 233.346679688 c 2
 -3658.83886719 -0.734375 l 2
 -3658.83886719 -74.7265625 -3714.1328125 -147.471679688 -3797.0703125 -147.471679688 c 2
 -3989.53125 -147.471679688 l 1
-3217.46386719 187.49609375 m 1
 -3217.46386719 -1.0576171875 l 2
 -3217.46386719 -83.1875 -3276.09863281 -147.631835938 -3356.92285156 -147.631835938 c 2
 -3458.671875 -147.631835938 l 1
-3063.06347656 52.84765625 m 1
 -3188.29199219 52.84765625 l 1
-2895.00976562 659.30859375 m 1
 -2895.00976562 107.331054688 l 2
 -2895.00976562 80.4150390625 -2914.53125 52.8427734375 -2948.69433594 52.8427734375 c 2
 -3035.65820312 52.8427734375 l 1
-2665.39550781 659.751953125 m 1
 -2665.13378906 108.983398438 l 2
 -2665.13378906 105.452148438 -2660.19238281 52.8193359375 -2718.20507812 52.8193359375 c 0
-74.005859375 52.72265625 m 1
 -195.03125 52.72265625 l 1
-227.869140625 187.759765625 m 1
 -227.869140625 -83.4443359375 l 2
 -227.543945312 -109.30078125 -250.43359375 -135.450195312 -279.162109375 -135.450195312 c 2
 -417.755859375 -135.450195312 l 2
 -498.321289062 -135.450195312 -591.747070312 -72.88671875 -591.747070312 -3.064453125 c 2
 -591.747070312 187.169921875 l 1
-1037.25488281 329.643554688 m 0
 -965.600585938 293.192382812 -857.368164062 233.116210938 -851.415039062 103.891601562 c 0
 -850.942382812 80.5166015625 -866.083007812 52.4052734375 -903.881835938 52.4052734375 c 2
 -1167.68652344 52.4052734375 l 1
903.481445312 659.198242188 m 1
 903.481445312 107.220703125 l 2
 903.481445312 80.3056640625 883.959960938 52.732421875 849.796875 52.732421875 c 2
 527.333007812 52.732421875 l 1
764.859375 429.748046875 m 1
 665.072265625 429.748046875 l 2
 644.784179688 429.694335938 650.254882812 421.075195312 654.260742188 412.265625 c 2
 690.143554688 336.1796875 l 2
 694.036132812 326.737304688 700.22265625 318.295898438 682.922851562 318.723632812 c 2
 572.2734375 318.723632812 l 1
1518.60058594 695.625976562 m 1
 1518.60058594 -41.7490234375 l 2
 1518.60058594 -68.6650390625 1499.08007812 -96.23828125 1464.91699219 -96.23828125 c 2
 1205.44628906 -96.7236328125 l 2
 1172.87988281 -96.7236328125 1151.41796875 -76.541015625 1151.41796875 -44.404296875 c 2
 1151.27636719 144.840820312 l 1
-6128.15136719 363.875976562 m 1
 -6128.15136719 105.115234375 l 2
 -6128.15136719 77.28515625 -6151.52734375 52.8740234375 -6179.95507812 52.8740234375 c 2
 -6320.27441406 52.8740234375 l 2
 -6392.2734375 52.8740234375 -6434.47851562 128.799804688 -6382.82910156 185.91015625 c 1
 -6314.109375 250.702148438 -6257.60449219 286.524414062 -6212.39453125 394.806640625 c 0
8778.02734375 768.884765625 m 0
 8570.10253906 424.404296875 8563.50488281 77.68359375 8780.19824219 -289.326171875 c 0
9122.44726562 716.360351562 m 1
 8981.43554688 716.360351562 l 1
 8981.43554688 -236.360351562 l 1
 9123.48046875 -236.360351562 l 1
8489.70605469 717.432617188 m 0
 8413.28125 719.651367188 8348.77832031 680.721679688 8348.77832031 609.995117188 c 2
 8348.77832031 357.614257812 l 2
 8348.77832031 285.270507812 8296.72070312 239.942382812 8208.65722656 239.942382812 c 1
 8295.42773438 239.942382812 8349.34863281 198.786132812 8349.34863281 122.780273438 c 2
 8349.34863281 -114.586914062 l 2
 8349.34863281 -202.681640625 8413.77734375 -237.52734375 8489.70605469 -237.52734375 c 0
-6792.93652344 -239.197265625 m 1
 -6792.93652344 0.6083984375 l 2
 -6792.93652344 28.439453125 -6769.56054688 52.849609375 -6741.1328125 52.849609375 c 2
 -6600.81347656 52.849609375 l 1
-6885.62792969 -262.181640625 m 0
 -6906.0703125 -157.809570312 -6945.31347656 -150.041992188 -6981.80664062 -91.607421875 c 0
 -7016.00488281 -36.8505859375 -6998.66601562 51.2470703125 -7048.65625 52.849609375 c 1
 -7188.97558594 52.849609375 l 1
EndSplineSet
EndChar

StartChar: uni0664.alt
Encoding: 65536 -1 28
Width: 1000
VWidth: 0
Flags: HW
LayerCount: 2
Back
SplineSet
543.967773438 615.428710938 m 1
 369.215820312 487.391601562 l 2
 330.349609375 459.489257812 342.125976562 435.943359375 370.856445312 404.978515625 c 1
 503.53515625 283.924804688 l 1
 359.959960938 123.82421875 l 2
 335.361328125 97.3515625 323.953125 70.7138671875 351.411132812 53.0908203125 c 1
 664.53125 52.8720703125 l 1
EndSplineSet
Fore
SplineSet
493.228743155 684.413827718 m 1
 594.771256845 545.586172282 l 1
 455.908263186 444.017811206 l 1
 561.873662761 347.613199563 l 0
 598.135759781 314.622870695 596.177387539 257.862467483 567.923296577 226.46903308 c 0
 489.201166805 139 l 1
 665 139 l 1
 665 -33 l 1
 351 -33 l 0
 337.274914476 -33 317.470789162 -28.0063293376 303.295783125 -18.5563253131 c 0
 289.977732938 -9.67762518854 276.589193527 2.59071553652 266.387069601 18.9776892075 c 0
 231.821514815 74.4979750156 257.534203258 129.82302398 274.378758682 154.726770584 c 0
 281.478984619 165.224063217 289.088157787 174.22745592 296.932847495 182.482238111 c 1
 382.854084136 277.950278824 l 1
 313.126337239 341.386800437 l 0
 311.913239451 342.490445793 309.701804316 344.639537883 308.196658437 346.248486925 c 0
 293.184768037 362.295680112 271.84901876 382.624584823 261.836679238 422.340766335 c 0
 250.013045965 469.241849163 273.033567853 516.753936743 301.059478454 542.479966089 c 0
 306.661548912 547.622315647 313.151474831 552.772744396 318.535494401 556.638194343 c 1
 493.228743155 684.413827718 l 1
EndSplineSet
EndChar

StartChar: uni0647.medi
Encoding: 65537 -1 29
Width: 1000
VWidth: 0
Flags: HW
LayerCount: 2
Back
SplineSet
601.958007812 -239.197265625 m 1
 601.958007812 0.6083984375 l 2
 601.958007812 28.439453125 625.333984375 52.849609375 653.76171875 52.849609375 c 2
 794.081054688 52.849609375 l 1
509.266601562 -262.181640625 m 0
 488.82421875 -157.809570312 449.581054688 -150.041992188 413.087890625 -91.607421875 c 0
 378.889648438 -36.8505859375 396.228515625 51.2470703125 346.23828125 52.849609375 c 1
 205.918945312 52.849609375 l 1
EndSplineSet
Fore
SplineSet
688 -239 m 1
 516 -239 l 1
 516 1 l 0
 516 39.4688624896 532.152789885 73.3895352027 555.903682475 97.5198033715 c 0
 580.156303885 122.159814529 614.686644956 139 654 139 c 0
 794 139 l 1
 794 -33 l 1
 688 -33 l 1
 688 -239 l 1
593.45255444 -245.759124146 m 1
 424.54744556 -278.240875854 l 1
 408.887179853 -196.807494181 396.054114927 -227.773867634 339.889846324 -137.286990441 c 1
 314.629880645 -96.4252812534 309.100498597 -56.8698668799 304.478448907 -33 c 1
 206 -33 l 1
 206 139 l 1
 347.71931255 139 l 1
 379.60980585 137.724380268 407.749826738 125.244646906 428.102063115 104.953140522 c 0
 499.195399292 34.0719430866 481.671010911 -39.5320433219 486.110153676 -46.7130095593 c 1
 501.945885073 -72.2261323662 569.112820147 -119.192505819 593.45255444 -245.759124146 c 1
EndSplineSet
EndChar

StartChar: u0644_u0627.isol
Encoding: 65538 -1 30
Width: 1000
VWidth: 0
Flags: HW
LayerCount: 2
Back
SplineSet
437.97265625 680.475585938 m 1
 568.926757812 230.705078125 l 1
642.90234375 659.807617188 m 1
 642.90234375 106.623046875 l 2
 642.90234375 74.345703125 620.7890625 52.791015625 592.381835938 52.791015625 c 2
 357.09765625 52.791015625 l 1
606.512695312 263.143554688 m 1
 505.91015625 262.408203125 l 1
 504.733398438 262.408203125 l 1
 504.806640625 261.23046875 l 1
 506.1875 210.372070312 492.783203125 175.916992188 471.02734375 150.028320312 c 0
 449.26953125 124.138671875 419.049804688 106.78515625 386.541992188 90.564453125 c 1
 387.056640625 88.3564453125 l 1
 466.979492188 89.9755859375 l 1
 467.2734375 90.048828125 l 1
 467.567382812 90.1220703125 l 1
 558.198242188 140.771484375 597.041992188 198.916015625 607.690429688 261.744140625 c 2
 607.911132812 263.142578125 l 1
 606.512695312 263.142578125 l 1
 606.512695312 263.143554688 l 1
EndSplineSet
Fore
SplineSet
492 255 m 1
 652 255 l 17
 641 162 575.220703125 115.291015625 482 90 c 1
 372 90 l 1
 440 123 494 153 492 255 c 1
355.442059654 655.912939454 m 1
 520.557940346 704.087060546 l 1
 651.557940346 255.087060546 l 1
 486.442059654 206.912939454 l 1
 355.442059654 655.912939454 l 1
657 660 m 1
 829 660 l 1
 829 107 l 2
 829 30.8889582032 768.438800317 -33 692 -33 c 2
 357 -33 l 1
 357 139 l 1
 657 139 l 2
 657 660 l 1
EndSplineSet
EndChar

StartChar: u0644_u0627.isol.alt1
Encoding: 65539 -1 31
Width: 1000
VWidth: 0
Flags: HW
LayerCount: 2
Back
SplineSet
620.204101562 658.766601562 m 1
 620.204101562 109.366210938 l 2
 620.204101562 77.0888671875 598.091796875 52.7607421875 569.68359375 52.7607421875 c 2
 379.795898438 52.7607421875 l 1
438.030273438 658.47265625 m 1
 438.030273438 157.299804688 l 1
EndSplineSet
Fore
SplineSet
584 659 m 1
 756 659 l 1
 756 109 l 0
 756 71.7855351606 742.462517019 35.331904884 716.359260897 8.17476029018 c 0
 692.330028902 -16.8246238755 657.534793015 -33 620 -33 c 0
 350 -33 l 1
 350 139 l 1
 584 139 l 1
 584 659 l 1
352 658 m 1
 524 658 l 1
 524 187 l 1
 352 187 l 1
 352 658 l 1
EndSplineSet
EndChar

StartChar: u0644_u0627.isol.alt2
Encoding: 65540 -1 32
Width: 1000
VWidth: 0
Flags: HW
LayerCount: 2
Back
SplineSet
665.368164062 659.77734375 m 1
 665.368164062 106.592773438 l 2
 665.368164062 74.3154296875 643.255859375 52.7607421875 614.84765625 52.7607421875 c 2
 334.631835938 52.7607421875 l 1
483.194335938 564.359375 m 1
 483.194335938 59.4873046875 l 1
EndSplineSet
Fore
SplineSet
629 660 m 1
 801 660 l 1
 801 107 l 0
 801 70.0371602941 787.246107642 33.1766104851 760.536388247 6.38920362935 c 0
 735.503802274 -18.7161917206 700.685383895 -33 665 -33 c 0
 325 -33 l 1
 325 139 l 1
 629 139 l 1
 629 660 l 1
397 564 m 1
 569 564 l 1
 569 59 l 1
 397 59 l 1
 397 564 l 1
EndSplineSet
EndChar

StartChar: uni0648.fina
Encoding: 65541 -1 33
Width: 1000
VWidth: 0
Flags: HW
LayerCount: 2
Back
SplineSet
729.676757812 52.431640625 m 1
 441.39453125 52.431640625 l 1
 380.485351562 53.4951171875 334.228515625 103.455078125 337.3125 155.423828125 c 1
 352.953125 335.272460938 600.447265625 387.680664062 601.015625 233.346679688 c 2
 601.015625 -0.734375 l 2
 601.015625 -74.7265625 545.721679688 -147.471679688 462.784179688 -147.471679688 c 2
 270.323242188 -147.471679688 l 1
EndSplineSet
Fore
SplineSet
686.983434021 -34 m 1
 685.043600932 -145.594162125 600.030428335 -263 463 -263 c 0
 270 -263 l 1
 270 -91 l 1
 463 -91 l 0
 489.470610697 -91 513.156144151 -68.1401716237 514.930335342 -34 c 1
 440.295129322 -34 l 1
 340.078211934 -32.357099715 259.047079891 41.7713998966 251.413922192 136.464187041 c 0
 250.724555108 145.016098732 250.588149756 150.339970841 251.219615358 161.285374607 c 1
 265.22293841 318.82275895 395.189469302 409.569001149 510.259290547 409.924355853 c 0
 551.728672149 410.052420185 597.775170196 397.8838645 633.951912967 363.995816917 c 0
 669.463086396 330.731231919 687 282.301912334 687 233 c 0
 687 138 l 1
 750 138 l 1
 750 -34 l 1
 686.983434021 -34 l 1
515 138 m 1
 515 233 l 0
 515 234.926020492 514.905333479 236.467168588 514.771910876 237.727090886 c 1
 489.732757006 240.465865513 430.111812977 212.1972272 422.922432185 149.986093148 c 1
 423.721210593 147.086002078 430.388557006 138.38910436 441.946007259 138 c 1
 515 138 l 1
EndSplineSet
EndChar

StartChar: uni0631.fina
Encoding: 65542 -1 34
Width: 1000
VWidth: 0
Flags: HW
LayerCount: 2
Back
SplineSet
543.403320312 187.49609375 m 1
 543.403320312 -1.0576171875 l 2
 543.403320312 -83.1875 484.76953125 -147.631835938 403.9453125 -147.631835938 c 2
 302.1953125 -147.631835938 l 1
697.8046875 52.84765625 m 1
 572.575195312 52.84765625 l 1
EndSplineSet
Fore
SplineSet
457 187 m 1
 629 187 l 1
 629 -31 l 0
 629 -154.152547721 536.574291645 -264 404 -264 c 0
 302 -264 l 1
 302 -92 l 1
 404 -92 l 0
 433.425708355 -92 457 -71.8474522786 457 -31 c 0
 457 187 l 1
718 139 m 1
 718 -33 l 1
 573 -33 l 1
 573 139 l 1
 718 139 l 1
EndSplineSet
EndChar

StartChar: uni0644.int
Encoding: 65543 -1 35
Width: 1000
VWidth: 0
Flags: HW
LayerCount: 2
Back
SplineSet
570.32421875 659.30859375 m 1
 570.32421875 107.331054688 l 2
 570.32421875 80.4150390625 550.802734375 52.8427734375 516.639648438 52.8427734375 c 2
 429.67578125 52.8427734375 l 1
EndSplineSet
Fore
SplineSet
484 659 m 1
 656 659 l 1
 656 107 l 0
 656 74.0261432175 644.981245293 40.7040701918 621.272607521 13.5852800814 c 0
 596.636682301 -14.594174665 558.145108662 -33 517 -33 c 0
 430 -33 l 1
 430 139 l 1
 484 139 l 1
 484 659 l 1
EndSplineSet
EndChar

StartChar: uni0633.init
Encoding: 65544 -1 36
Width: 1000
VWidth: 0
Flags: HW
LayerCount: 2
Back
SplineSet
713.458984375 482.321289062 m 5
 713.458984375 482.321289062 l 5
521.173828125 482.7578125 m 5
 521.173828125 482.7578125 l 5
616.19921875 576.91015625 m 5
 616.19921875 576.91015625 l 5
798.67578125 376.676757812 m 1
 798.69921875 104.60546875 l 2
 798.69921875 75.36328125 776.3359375 52.8642578125 745.55859375 52.8486328125 c 2
 663.294921875 52.8486328125 l 1
615.3984375 376.534179688 m 1
 615.3984375 104.469726562 l 2
 615.3984375 75.228515625 593.034179688 52.720703125 562.279296875 52.720703125 c 2
 480.002929688 52.720703125 l 1
432.950195312 376.752929688 m 1
 432.973632812 104.680664062 l 2
 432.973632812 75.439453125 410.609375 52.939453125 379.833007812 52.9248046875 c 2
 201.30078125 52.9248046875 l 1
EndSplineSet
Fore
SplineSet
792 376 m 1
 964 376 l 1
 964 104 l 0
 964 67.2263178709 949.215989472 32.2531461973 924.2321711 7.10459966803 c 0
 898.149334897 -19.1502109507 861.787272478 -34 824 -34 c 0
 722 -34 l 1
 722 138 l 1
 792 138 l 1
 792 376 l 1
569 377 m 1
 741 377 l 1
 741 104 l 0
 741 68.6442488267 727.337757569 33.8298971049 702.543416479 8.428683624 c 0
 676.086961763 -18.675325785 639.16594461 -33 602 -33 c 0
 480 -33 l 1
 480 139 l 1
 569 139 l 1
 569 377 l 1
347 377 m 1
 519 377 l 1
 519 105 l 0
 519 68.9377921245 504.994241827 33.807591398 479.74084139 8.12527924628 c 0
 453.874527631 -18.1803561417 417.474779103 -33 380 -33 c 0
 201 -33 l 1
 201 139 l 1
 347 139 l 1
 347 377 l 1
EndSplineSet
EndChar

StartChar: uni066E.init
Encoding: 65545 -1 37
Width: 1000
VWidth: 0
Flags: HW
LayerCount: 2
Back
SplineSet
670.66796875 376.509765625 m 1
 670.692382812 104.438476562 l 2
 670.692382812 75.1962890625 648.328125 52.6962890625 617.55078125 52.681640625 c 2
 329.307617188 52.681640625 l 1
EndSplineSet
Fore
SplineSet
585 377 m 1
 757 377 l 1
 757 104 l 0
 757 68.6442488267 743.337757569 33.8298971049 718.543416479 8.428683624 c 0
 692.086961763 -18.675325785 655.16594461 -33 618 -33 c 0
 329 -33 l 1
 329 139 l 1
 585 139 l 1
 585 377 l 1
EndSplineSet
EndChar

StartChar: uni06BA.fina
Encoding: 65546 -1 38
Width: 1000
VWidth: 0
Flags: HW
LayerCount: 2
Back
SplineSet
758.870117188 52.72265625 m 1
 637.844726562 52.72265625 l 1
605.006835938 187.759765625 m 1
 605.006835938 -83.4443359375 l 2
 605.333007812 -109.30078125 582.442382812 -135.450195312 553.713867188 -135.450195312 c 2
 415.120117188 -135.450195312 l 2
 334.555664062 -135.450195312 241.129882812 -72.88671875 241.129882812 -3.064453125 c 2
 241.129882812 187.169921875 l 1
EndSplineSet
Fore
SplineSet
779 139 m 1
 779 -33 l 1
 638 -33 l 1
 638 139 l 1
 779 139 l 1
519 188 m 1
 691 188 l 1
 691 -83 l 0
 691 -120.128802188 676.234423244 -152.866250777 653.165384906 -177.515360233 c 0
 629.989083337 -202.279079718 594.964524645 -221 554 -221 c 0
 415 -221 l 0
 309.976542268 -221 176.803025939 -155.299848785 157.012452601 -28.7768784074 c 0
 155.701244289 -20.394202092 155 -11.7606526922 155 -3 c 0
 155 187 l 1
 327 187 l 1
 327 -2.36277648259 l 1
 329.903402295 -11.4861537176 373.565025957 -49 415 -49 c 0
 519 -49 l 1
 519 188 l 1
EndSplineSet
EndChar

StartChar: uni0649.fina.alt1
Encoding: 65547 -1 39
Width: 1000
VWidth: 0
Flags: HW
LayerCount: 2
Back
SplineSet
759.208007812 53.0771484375 m 1
 505.82421875 53.0771484375 l 1
602.90625 57.931640625 m 1
 602.90625 -84.7783203125 l 2
 602.90625 -105.793945312 587.123046875 -135.1171875 556.306640625 -135.1171875 c 2
 419.421875 -135.1171875 l 2
 337.391601562 -135.1171875 240.791992188 -79.5771484375 240.791992188 3.5654296875 c 2
 240.791992188 186.079101562 l 1
EndSplineSet
Fore
SplineSet
759 139 m 1
 759 -33 l 1
 506 -33 l 1
 506 139 l 1
 759 139 l 1
517 58 m 1
 689 58 l 1
 689 -85 l 0
 689 -117.240512106 678.541203446 -147.554309165 656.134488992 -174.216581435 c 0
 634.809045668 -199.592223962 598.524135132 -221 556 -221 c 0
 419 -221 l 0
 312.846697176 -221 155 -151.606263596 155 4 c 0
 155 186 l 1
 327 186 l 1
 327 4 l 0
 327 -6.39373640351 361.153302824 -49 419 -49 c 0
 517 -49 l 1
 517 58 l 1
EndSplineSet
EndChar

StartChar: uni0649.fina.alt2
Encoding: 65548 -1 40
Width: 1000
VWidth: 0
Flags: HW
LayerCount: 2
Back
SplineSet
856.30859375 52.8037109375 m 1
 744.620117188 52.8271484375 l 2
 719.015625 52.8271484375 697.796875 72.662109375 697.796875 98.220703125 c 1
 693.829101562 180.728515625 l 2
 690.821289062 243.31640625 630.64453125 277.256835938 563.108398438 239.418945312 c 0
 523.4765625 217.213867188 484.655273438 190.9609375 449.19140625 157.325195312 c 1
 430.669921875 141.27734375 428.8984375 104.421875 449.608398438 85.5302734375 c 1
 564.463867188 -44.2265625 l 1
 591.19140625 -70.955078125 560.764648438 -110.4765625 524.743164062 -110.288085938 c 2
 259.10546875 -110.288085938 l 1
 190.3515625 -111.49609375 143.69140625 -54.177734375 143.69140625 13.755859375 c 2
 143.69140625 217.1171875 l 1
EndSplineSet
Fore
SplineSet
856 139 m 1
 856 -33 l 1
 745 -33 l 0
 703.20538384 -33 662.595960237 -13.856542633 637.121530903 20.8458359793 c 0
 621.548664454 42.0598738081 612.472410848 72.467355635 612.025007039 95.4100166247 c 1
 608.631071818 165.834172467 l 1
 606.883599547 164.992443403 606.625063341 164.861451862 604.699299466 163.785289696 c 1
 579.434472976 149.889635126 556.582936715 135.272807733 535.667035896 118.746322449 c 1
 627.032856646 14.5572286113 l 1
 649.455128759 -9.72831338704 660.403522812 -37.3900252666 660.407998589 -67.4090596878 c 0
 660.42011694 -148.686842991 590.405785689 -196 525 -196 c 0
 259.821378939 -196 l 1
 133.526990981 -196.865284906 58 -90.8200726675 58 14 c 0
 58 217 l 1
 230 217 l 1
 230 14 l 0
 230 -16.6703008666 244.153544171 -24.2061347847 258.376844314 -24 c 1
 432.078496726 -24 l 1
 387.913746684 26.3633114519 l 1
 356.708073291 58.3661014385 345.513597297 99.0356817065 349.16561531 136.232457439 c 0
 351.999137211 165.092632368 361.445953489 193.209742293 391.1871619 220.724835452 c 1
 430.522291465 258.559933525 478.591784276 290.724806362 521.300700534 314.214710304 c 1
 578.141624235 345.978755902 648.382304585 352.345122883 704.924291558 317.292556128 c 0
 728.005499045 302.983622015 746.987428975 282.581196362 759.805189789 258.8948582 c 0
 772.131567697 236.116561767 778.681266307 210.739867135 779.902659844 185.09060285 c 0
 782.123907822 139 l 1
 856 139 l 1
EndSplineSet
EndChar

StartChar: uni0639.init
Encoding: 65549 -1 41
Width: 1000
VWidth: 0
Flags: HW
LayerCount: 2
Back
SplineSet
266.13671875 52.6884765625 m 1
 733.86328125 52.6884765625 l 1
684.389648438 347.239257812 m 4
 401.158203125 432.618164062 309.28125 295.54296875 507.385742188 103.733398438 c 4
EndSplineSet
Fore
SplineSet
266 -33 m 1
 266 139 l 1
 734 139 l 1
 734 -33 l 1
 266 -33 l 1
708.738618013 429.365045856 m 1
 659.261381987 264.634954144 l 1
 564.305714246 293.155207706 503.997213706 286.548573668 488.15858046 279.493871915 c 1
 490.618920399 263.153250129 514.601917648 212.339376521 585.262914909 147.256879044 c 1
 468.737085091 20.7431209563 l 1
 357.385172357 123.304093211 271.853881232 247.934876523 336.242343709 363.798838157 c 0
 342.517504946 375.090690965 350.171936158 385.551944157 358.805739101 394.859613148 c 0
 438.605230337 480.887433675 572.429303722 470.306005979 708.738618013 429.365045856 c 1
EndSplineSet
EndChar

StartChar: uni0647.init.alt1
Encoding: 65550 -1 42
Width: 1000
VWidth: 0
Flags: HW
LayerCount: 2
Back
SplineSet
441.051757812 387.03125 m 0
 699.623046875 383.044921875 811.83984375 257.286132812 808.040039062 105.389648438 c 0
 808.040039062 75.1494140625 785.385742188 52.7578125 756.333007812 52.7578125 c 2
 191.866210938 52.7578125 l 1
363.622070312 103.087890625 m 1
 363.622070312 199.745117188 l 1
 374.745117188 307.911132812 504.532226562 329.243164062 582.098632812 209.809570312 c 0
 644.580078125 113.6015625 580.021484375 53.6533203125 514.366210938 53.12109375 c 0
EndSplineSet
Fore
SplineSet
440.712376191 361.000480975 m 1
 441.287623809 532.999519025 l 1
 446.623256535 532.9816741 451.915517932 532.91038223 457.164689387 532.786150582 c 0
 791.888000055 524.864285389 928.59919543 293.358909479 924.005458949 104.153310753 c 1
 923.540932423 75.7271347485 916.680708844 53.1861031156 903.314421605 31.6369085035 c 0
 878.288669338 -8.70973348512 833.50887347 -33 786 -33 c 0
 192 -33 l 1
 192 139 l 1
 750.784249481 139 l 1
 740.251968884 239.680459719 672.522804659 360.225195261 440.712376191 361.000480975 c 1
515.302880761 -32.9901302576 m 1
 512.697119239 138.990130258 l 1
 515.548844272 139.033338213 518.486571849 139.627193525 520.646717309 140.434694723 c 1
 519.690220295 144.389671631 517.381649136 151.402413665 509.922178002 163.087073366 c 1
 473.583280758 218.044003668 453.508787894 204.018624267 453.508787894 204.018624267 c 1
 453.508787894 204.018624267 451.68033074 204.372215564 450 194.562150533 c 1
 450 103 l 1
 278 103 l 1
 278 200 l 0
 278 202.781484438 278.231772633 206.64391567 278.442632514 208.714176318 c 0
 284.205303846 265.293131211 312.441083786 316.770133231 358.270223524 347.244375496 c 0
 457.996089457 413.557429066 584.833120876 362.555925659 654.08556878 256.90155001 c 1
 678.057628848 219.783521518 692.282410507 181.173584371 693.138569993 140.64252239 c 0
 693.808660943 108.920047458 685.459759468 77.970295441 670.201206725 52.3880656436 c 0
 634.993195415 -6.64108680493 572.38188337 -32.1252968848 515.302880761 -32.9901302576 c 1
EndSplineSet
EndChar

StartChar: uni0647.init.alt2
Encoding: 65551 -1 43
Width: 1000
VWidth: 0
Flags: HW
LayerCount: 2
Back
SplineSet
457.63671875 397.036132812 m 0
 704.846679688 397.036132812 802.696289062 275.333984375 800.9453125 104.697265625 c 0
 800.9453125 74.4560546875 778.291015625 53.04296875 749.23828125 53.04296875 c 2
 199.03125 53.04296875 l 1
350.176757812 185.716796875 m 0
 350.176757812 118.063476562 405.120117188 63.1201171875 472.7734375 63.1201171875 c 0
 540.42578125 63.1201171875 595.369140625 118.063476562 595.369140625 185.716796875 c 0
 595.369140625 253.369140625 540.42578125 308.3125 472.7734375 308.3125 c 0
 405.120117188 308.3125 350.176757812 253.369140625 350.176757812 185.716796875 c 0
EndSplineSet
Fore
SplineSet
458 311 m 1
 458 483 l 1
 741.295310693 483 889.538212157 321.514232615 887 104.497093221 c 1
 887 74.6661749177 876.673127089 43.9160649132 858.436281603 20.2698199833 c 0
 832.489723518 -13.3729867192 791.750211787 -33 749 -33 c 0
 199 -33 l 1
 199 139 l 1
 713.730560194 139 l 1
 704.205677131 239.336564053 654.546226857 311 458 311 c 1
264 186 m 0
 264 302.116943575 358.495933306 394 473 394 c 0
 588.172364774 394 681 301.172475245 681 186 c 0
 681 71.4959975859 589.117060308 -23 473 -23 c 0
 357.550221991 -23 264 70.5502381036 264 186 c 0
436 186 m 0
 436 165.449761896 452.449778009 149 473 149 c 0
 492.882939692 149 509 164.504002414 509 186 c 0
 509 206.827524755 493.827635226 222 473 222 c 0
 451.504066694 222 436 205.883056425 436 186 c 0
EndSplineSet
EndChar

StartChar: uni0647.init
Encoding: 65552 -1 44
Width: 1000
VWidth: 0
Flags: HW
LayerCount: 2
Back
SplineSet
441.051757812 448.146484375 m 0
 699.623046875 444.16015625 811.83984375 257.171875 808.040039062 105.274414062 c 0
 808.040039062 75.0341796875 785.385742188 52.6435546875 756.333007812 52.6435546875 c 2
 191.866210938 52.6435546875 l 1
363.622070312 102.973632812 m 1
 363.622070312 199.629882812 l 1
 374.745117188 307.795898438 504.532226562 329.127929688 582.098632812 209.694335938 c 0
 644.580078125 113.487304688 580.021484375 53.5380859375 514.3671875 53.005859375 c 0
EndSplineSet
Fore
SplineSet
461 417 m 1
 461 589 l 1
 776.281775597 589 918.341273849 285.862900487 914.006258198 104.202219916 c 1
 913.540050322 75.6731555499 906.691650375 53.2037431056 893.314421605 31.6369085035 c 0
 868.288669338 -8.70973348512 823.50887347 -33 776 -33 c 0
 192 -33 l 1
 192 139 l 1
 740.495533826 139 l 1
 726.291551094 262.823019586 627.508141859 417 461 417 c 1
515.302880761 -32.9901302576 m 1
 512.697119239 138.990130258 l 1
 515.548844272 139.033338213 518.486571849 139.627193525 520.646717309 140.434694723 c 1
 519.690769666 144.387400061 517.378896293 151.406725771 509.924397738 163.083596327 c 1
 484.054867116 202.188809733 456.892405772 205.412317943 450.319573613 204.567211364 c 1
 450.195587217 203.794755137 450 202.040764112 450 200 c 0
 450 103 l 1
 278 103 l 1
 278 200 l 0
 278 249.592719073 296.643172654 297.305390533 331.715274884 330.289961787 c 0
 338.587048647 336.752719845 345.957809358 342.568834736 353.685681214 347.692399639 c 0
 453.222232189 413.68495084 583.850592239 364.054911656 654.08556878 256.90155001 c 1
 678.057628848 219.783521518 692.282410507 181.173584371 693.138569993 140.64252239 c 0
 693.808660943 108.920047458 685.459759468 77.970295441 670.201206725 52.3880656436 c 0
 634.993195415 -6.64108680493 572.38188337 -32.1252968848 515.302880761 -32.9901302576 c 1
EndSplineSet
EndChar

StartChar: uni0647.init.alt3
Encoding: 65553 -1 45
Width: 1000
VWidth: 0
Flags: HW
LayerCount: 2
Back
SplineSet
441.163085938 481.560546875 m 0
 645.9140625 452.495117188 812.732421875 291.227539062 812.732421875 104.837890625 c 0
 812.732421875 74.59765625 790.077148438 53.18359375 761.025390625 53.18359375 c 2
 187.267578125 53.18359375 l 1
338.413085938 185.857421875 m 0
 338.413085938 118.205078125 393.356445312 63.26171875 461.008789062 63.26171875 c 0
 528.662109375 63.26171875 583.60546875 118.205078125 583.60546875 185.857421875 c 0
 583.60546875 253.509765625 528.662109375 308.453125 461.008789062 308.453125 c 0
 393.356445312 308.453125 338.413085938 253.509765625 338.413085938 185.857421875 c 0
EndSplineSet
Fore
SplineSet
428.954080146 396.847807927 m 1
 453.045919854 567.152192073 l 1
 691.302341979 533.447625041 899 344.393169424 899 105 c 0
 899 74.9463670463 889.314580346 45.5919409189 871.826448686 22.1042604703 c 0
 845.962066037 -12.6332613224 804.542495241 -33 761 -33 c 0
 187 -33 l 1
 187 139 l 1
 724.423862747 139 l 1
 706.198936434 258.657872344 585.464728334 374.707277207 428.954080146 396.847807927 c 1
252 186 m 0
 252 302.116943575 346.495933306 394 461 394 c 0
 575.504002414 394 670 302.117060308 670 186 c 0
 670 70.5502219913 576.449761896 -23 461 -23 c 0
 345.550221991 -23 252 70.5502381036 252 186 c 0
424 186 m 0
 424 165.449761896 440.449778009 149 461 149 c 0
 481.550238104 149 498 165.449778009 498 186 c 0
 498 205.882939692 482.495997586 222 461 222 c 0
 439.504066694 222 424 205.883056425 424 186 c 0
EndSplineSet
EndChar

StartChar: uni062D.init
Encoding: 65554 -1 46
Width: 1000
VWidth: 0
Flags: HW
LayerCount: 2
Back
SplineSet
671.798828125 417.82421875 m 1
 671.798828125 417.82421875 l 1
574.908203125 -139.877929688 m 1
 574.908203125 -139.877929688 l 1
245.327148438 52.5791015625 m 1
 727.629882812 52.5791015625 l 2
 734.00390625 52.40625 750.166992188 63.076171875 751.454101562 69.216796875 c 0
 752.997070312 77.6669921875 755.27734375 77.404296875 754.524414062 91.4306640625 c 1
 713.0625 91.595703125 676.595703125 119.318359375 644.021484375 148.4921875 c 0
 601.520507812 186.545898438 554.887695312 239.987304688 502.778320312 276.686523438 c 0
 447.620117188 315.522460938 393.034179688 328.6015625 351.69921875 339.000976562 c 0
EndSplineSet
Fore
SplineSet
796.352265277 196.405504815 m 1
 821.73619072 182.484998332 838.718691858 156.004354089 840.781425856 127.127558906 c 0
 841.936524587 110.957005881 840.445521114 97.8096315978 837.282070034 82.9602223319 c 0
 831.399132304 55.3453966805 802.629208077 -33 708 -33 c 0
 245 -33 l 1
 245 139 l 1
 559.716676545 139 l 1
 521.010220597 176.500407135 485.45915764 213.932423974 453.198063697 236.887433126 c 1
 413.114932343 265.310017177 372.853076184 275.392834357 331.621768504 285.449250865 c 1
 372.378231496 452.550749135 l 1
 413.146923816 442.607165643 482.885067657 426.689982823 552.801936303 377.112566874 c 1
 616.829234529 331.554681597 665.004406398 274.207300322 700.859542976 242.521365672 c 1
 732.634813241 214.597643318 753.386766975 207.016559045 754.956419308 207.000229189 c 0
 755.956365196 206.989826267 796.352265277 196.405504815 796.352265277 196.405504815 c 1
EndSplineSet
EndChar

StartChar: uni0643.init
Encoding: 65555 -1 47
Width: 1000
VWidth: 0
Flags: HW
LayerCount: 2
Back
SplineSet
220.776367188 52.7294921875 m 1
 682.98046875 52.955078125 l 2
 743.533203125 53.068359375 736.663085938 119.475585938 717.783203125 135.481445312 c 1
 438.103515625 420.653320312 l 1
 403.49609375 451.453125 409.0625 496.930664062 435.357421875 511.44140625 c 1
 534.03125 572.36328125 741.8046875 619.051757812 779.223632812 619.650390625 c 0
EndSplineSet
Fore
SplineSet
776.676524124 705.968607409 m 1
 781.324364829 533.998501332 l 1
 762.563951668 532.437101802 609.944775097 498.587648043 521.201439386 458.948042453 c 1
 779.452371942 195.163161342 l 0
 813.128046691 160.766432749 822.597305225 116.833086616 814.525894188 72.0799363638 c 0
 810.523219405 49.8865051096 799.816731575 23.716081834 777.742096066 2.64372278655 c 0
 751.38818045 -22.5136199889 715.582154263 -33 683 -33 c 0
 221 -33 l 1
 221 139 l 1
 593.730547024 139 l 1
 376.547370606 360.837101627 l 0
 366.880054393 370.711659146 358.438858485 381.501417393 351.436256392 393.039975281 c 0
 332.94562258 423.507970715 324.274492117 459.651332736 330.43355662 495.844345312 c 0
 336.390389003 530.8489648 358.386084024 565.277715903 390.987156728 584.892911146 c 1
 514.18808498 660.255771239 713.250515033 704.254390947 776.676524124 705.968607409 c 1
EndSplineSet
EndChar

StartChar: uni0635.init
Encoding: 65556 -1 48
Width: 1000
VWidth: 0
Flags: HW
LayerCount: 2
Back
SplineSet
434.485351562 389.147460938 m 5
 434.485351562 389.147460938 l 5
398.112304688 69.18359375 m 0
 502.264648438 212.759765625 602.353515625 362.129882812 718.275390625 319.229492188 c 1
 767.932617188 298.633789062 792.877929688 253.17578125 794.48046875 171.176757812 c 1
 797.294921875 103.987304688 l 2
 798.513671875 74.767578125 774.938476562 52.23046875 744.162109375 52.23046875 c 2
 202.66015625 52.23046875 l 1
341.533203125 277.060546875 m 1
 341.231445312 97.666015625 l 1
EndSplineSet
Fore
SplineSet
391.719845272 138 m 1
 395.283001623 142.950465123 l 0
 477.919771867 257.753457781 603.78210758 471.592413087 799.611201451 399.000593808 c 1
 893.684465437 359.489822933 927.357611415 269.034776203 929.952241343 173.991019062 c 1
 932.933686358 107.40541372 l 1
 934.232929014 69.7273767114 920.401886734 34.8261920814 896.101912486 9.17321386762 c 0
 869.774092101 -18.6205194039 832.501673367 -34 794 -34 c 0
 203 -34 l 1
 203 138 l 1
 391.719845272 138 l 1
605.89720551 138 m 1
 759.391444371 138 l 1
 758.046917027 168.027777351 l 1
 756.405420859 235.32912021 743.89806328 235.409977141 736.405285118 238.95369183 c 1
 721.462741132 243.787287235 682.166136357 233.907293021 605.89720551 138 c 1
255 277 m 1
 427 277 l 1
 427 98 l 1
 255 98 l 1
 255 277 l 1
EndSplineSet
EndChar

StartChar: uni0643_uni0627.isol
Encoding: 65557 -1 49
Width: 1000
VWidth: 0
Flags: HW
LayerCount: 2
Back
SplineSet
714.047851562 621.15625 m 0
 618.560546875 588.452148438 437.850585938 518.624023438 353.793945312 431.55078125 c 1
 670.483398438 105.393554688 l 2
 692.306640625 83.5703125 674.186523438 52.3388671875 640.376953125 52.3388671875 c 2
 334.659179688 52.3388671875 l 2
 305.543945312 52.53515625 285.728515625 78.1640625 285.953125 106.263671875 c 2
 287.693359375 670.732421875 l 1
EndSplineSet
Fore
SplineSet
685.78039591 702.238254197 m 1
 742.21960409 539.761745803 l 1
 674.614531006 516.277878311 561.400198192 472.726060338 482.034586713 423.265829902 c 1
 733.707006512 162.832661312 l 1
 750.502041583 145.331889942 764.897275148 115.799368028 765.615206197 86.4090267919 c 0
 766.054918795 68.4082684864 762.038727882 50.9203587946 754.908265822 35.7408968949 c 0
 732.870667696 -11.1731569601 685.364115505 -34 640 -34 c 0
 335 -34 l 0
 296.042230934 -34 261.216738095 -16.3466992776 238.296608939 8.11022211953 c 0
 212.973506623 35.1312357732 200 69.9523047888 200 106 c 0
 200 671 l 1
 372 671 l 1
 372 556.924985393 l 1
 476.660928032 626.674808159 608.699081246 675.46263963 685.78039591 702.238254197 c 1
372 289.616100937 m 1
 372 138 l 1
 518.515865125 138 l 1
 372 289.616100937 l 1
EndSplineSet
EndChar

StartChar: uni06D2.fina
Encoding: 65558 -1 50
Width: 1000
VWidth: 0
Flags: HW
LayerCount: 2
Back
SplineSet
802.649414062 -222.78125 m 1
 365.291992188 -222.666992188 l 1
 149.583007812 -215.524414062 161.9765625 -27.1357421875 288.131835938 5.5361328125 c 0
 398.493164062 34.109375 388.989257812 78.783203125 410.336914062 114.796875 c 0
 463.61328125 204.672851562 572.702148438 198.776367188 613.298828125 121.260742188 c 0
 639.313476562 71.57421875 674.263671875 53.2080078125 728.6171875 53.212890625 c 2
 802.631835938 53.21875 l 1
EndSplineSet
Fore
SplineSet
803 -137 m 1
 803 -309 l 1
 365 -309 l 0
 241.225117376 -309 143.205786384 -251.019033541 117.354236872 -153.860627331 c 0
 89.4378112903 -48.9417552401 155.756095614 60.265321602 266.143715135 89.1763648099 c 1
 347.889260333 110.727463089 294.863464796 88.301680092 335.804606645 158.48649469 c 1
 357.886788848 195.984539941 388.043706577 225.164136245 423.263528907 243.791035161 c 0
 518.113220996 293.954707488 637.171672584 259.850340362 689.212759778 160.845345213 c 1
 701.230073793 137.735125954 698.166147161 139 729 139 c 0
 803 139 l 1
 803 -33 l 1
 729 -33 l 0
 651.833852839 -33 576.769926207 4.26487404611 536.787240222 81.1546547865 c 1
 529.238265304 95.5161192651 516.8844257 98.7311456816 503.676515629 91.7458064748 c 0
 498.180790308 88.8392523456 491.452263095 83.6760174255 484.252995948 71.6107196323 c 1
 481.692259272 66.986806794 447.047279986 -41.0078297325 309.856284865 -77.1763648099 c 1
 285.590638054 -83.5316532603 281.71791927 -102.669606987 283.571051539 -109.634271818 c 0
 283.662878461 -109.979386813 287.503552013 -137 365 -137 c 0
 803 -137 l 1
EndSplineSet
EndChar

StartChar: braceleft
Encoding: 123 123 51
Width: 1000
VWidth: 0
Flags: HW
LayerCount: 2
Back
SplineSet
640.524414062 717.432617188 m 17
 564.099609375 719.651367188 499.596679688 680.721679688 499.596679688 609.995117188 c 2
 499.596679688 357.614257812 l 2
 499.596679688 285.270507812 447.5390625 239.942382812 359.475585938 239.942382812 c 1
 446.24609375 239.942382812 500.166992188 198.786132812 500.166992188 122.780273438 c 2
 500.166992188 -114.586914062 l 2
 500.166992188 -202.681640625 564.595703125 -237.52734375 640.524414062 -237.52734375 c 9
EndSplineSet
Fore
SplineSet
701 -152 m 1
 701 -324 l 1
 552.26507024 -324 444 -209.864109754 444 -75 c 0
 444 93 l 0
 444 94.11328125 446.326230552 133.575915918 414.532915669 145.047831419 c 0
 399.487718013 150.476558712 379.503066439 154 359 154 c 1
 359 155 358 326 359 326 c 0
 378.759382247 326 398.157648771 329.718485293 413.142704867 335.455447509 c 0
 446.101616095 348.073620387 444 388 444 388 c 0
 444 570 l 0
 444 692.216186013 550.208735214 803 701 803 c 1
 701 631 l 1
 635.791264786 631 616 589.783813987 616 570 c 0
 616 358 l 0
 616 312.960137417 597.831561346 271.577555406 572.007118245 241.143502142 c 1
 600.06964935 208.203371808 616 168.565085261 616 123 c 0
 616 -75 l 0
 616 -116.135890246 643.73492976 -152 701 -152 c 1
EndSplineSet
EndChar

StartChar: parenleft
Encoding: 40 40 52
Width: 1000
VWidth: 0
Flags: HW
LayerCount: 2
Back
SplineSet
577.990234375 768.884765625 m 0
 370.065429688 424.404296875 363.467773438 77.68359375 580.161132812 -289.326171875 c 0
EndSplineSet
Fore
SplineSet
654.027631611 -245.228893571 m 1
 505.972368389 -332.771106429 l 1
 274.629950104 58.4854258778 281.655114911 445.10063301 504.407049412 813.498063146 c 1
 651.592950588 724.501936854 l 1
 458.344885089 404.89936699 451.370049896 97.5145741221 654.027631611 -245.228893571 c 1
EndSplineSet
EndChar

StartChar: bracketleft
Encoding: 91 91 53
Width: 1000
VWidth: 0
Flags: HW
LayerCount: 2
Back
SplineSet
569.989257812 716.360351562 m 5
 428.977539062 716.360351562 l 5
 428.977539062 -236.360351562 l 5
 571.022460938 -236.360351562 l 5
EndSplineSet
Fore
SplineSet
600 802 m 1
 600 630 l 1
 515 630 l 1
 515 -150 l 1
 601 -150 l 1
 601 -322 l 1
 429 -322 l 2
 392.089129096 -322 343 -288.055930223 343 -236 c 2
 343 716 l 2
 343 752.910870904 376.944069777 802 429 802 c 2
 600 802 l 1
EndSplineSet
EndChar

StartChar: uni064B
Encoding: 1611 1611 54
Width: 0
VWidth: 0
Flags: HW
LayerCount: 2
Back
SplineSet
194.4140625 180.337890625 m 1
 -194.4140625 179.065429688 l 1
194.4140625 29.62109375 m 1
 -194.4140625 28.3486328125 l 1
EndSplineSet
Fore
SplineSet
194 229 m 1
 194 129 l 1
 -194 129 l 1
 -194 229 l 1
 194 229 l 1
193.871134449 78.9998339364 m 1
 194.128865551 -20.9998339364 l 1
 -193.871134449 -21.9998339364 l 1
 -194.128865551 77.9998339364 l 1
 193.871134449 78.9998339364 l 1
EndSplineSet
EndChar

StartChar: uni064E
Encoding: 1614 1614 55
Width: 0
VWidth: 0
Flags: HW
LayerCount: 2
Back
SplineSet
136.787109375 242.287109375 m 1
 -136.787109375 -34.0205078125 l 1
EndSplineSet
Fore
SplineSet
101.516330673 277.226541288 m 1
 172.483669327 206.773458712 l 1
 -101.516330673 -69.226541288 l 1
 -172.483669327 1.22654128804 l 1
 101.516330673 277.226541288 l 1
EndSplineSet
EndChar

StartChar: uni064F
Encoding: 1615 1615 56
Width: 0
VWidth: 0
Flags: HW
LayerCount: 2
Back
SplineSet
-51.4501953125 206.337890625 m 0
 -14.1572265625 249.756835938 55.04296875 250.140625 94.0810546875 213.84765625 c 0
 133.0234375 177.442382812 133.166015625 114.443359375 95.6318359375 73.8916015625 c 0
 57.89453125 33.53515625 -1.8681640625 30.66796875 -44.046875 63.943359375 c 0
 -86.208984375 97.2109375 -88.78125 162.94140625 -51.4501953125 206.337890625 c 0
-123.5390625 -164.25 m 1
 89.7099609375 68.353515625 l 1
EndSplineSet
Fore
SplineSet
-13.0994563109 173.387904267 m 0
 -34.3714947688 148.66634606 -28.840820261 115.676693829 -13.1089224034 103.315916941 c 0
 9.09935539475 85.866555814 39.3257828488 87.303491227 59.5358889092 108.212702945 c 1
 79.5396005213 130.178245963 77.3393359838 161.333666734 60.0859948633 177.259827769 c 0
 41.5342562639 194.384509553 4.16927554226 193.456971016 -13.0994563109 173.387904267 c 0
-88.9005436891 238.612095733 m 0
 -32.1692755423 304.543028984 68.4657437361 305.615490447 127.914005137 250.740172231 c 0
 188.804368629 194.533682854 188.269910009 99.9995089078 132.462127048 39.7858483446 c 1
 76.0321295972 -19.6141489721 -13.2109474868 -23.7788763131 -74.8910775966 24.6840830589 c 0
 -143.159179739 78.3233061708 -141.628505231 177.33365394 -88.9005436891 238.612095733 c 0
-87.247683276 -197.900843875 m 1
 -160.752316724 -130.099156125 l 1
 53.247683276 101.900843875 l 1
 126.752316724 34.0991561253 l 1
 -87.247683276 -197.900843875 l 1
EndSplineSet
EndChar

StartChar: uni0652
Encoding: 1618 1618 57
Width: 0
VWidth: 0
Flags: HW
LayerCount: 2
Back
SplineSet
-2.8017578125 223.33984375 m 0
 54.373046875 225.770507812 101.907226562 175.473632812 102.06640625 122.159179688 c 0
 102.06640625 68.845703125 56.15625 25.7197265625 0.900390625 25.44140625 c 0
 -54.3623046875 25.44140625 -97.26171875 67.1376953125 -101.76171875 120.676757812 c 0
 -106.26953125 174.202148438 -59.9990234375 220.961914062 -2.8017578125 223.33984375 c 0
EndSplineSet
Fore
SplineSet
-1.24669299335 173.03075031 m 0
 -34.2947186579 171.871170463 -54.1369965197 146.389436931 -52.1705762904 125.152098455 c 1
 -49.9999172675 95.8482016459 -27.5587007265 75 1 75 c 0
 29.937853766 75 52 98.6305213883 52 122 c 0
 52 146.75638629 25.8768905601 173.982454996 -1.24669299335 173.03075031 c 0
-4.75330700665 272.96924969 m 0
 82.1231094399 276.017545004 152 203.24361371 152 122 c 0
 152 39.3694786117 82.062146234 -25 1 -25 c 0
 -80.9792554857 -25 -145.230380827 37.0156458222 -151.947529582 118.253925261 c 1
 -159.028394789 204.368178338 -85.2904299049 270.143385728 -4.75330700665 272.96924969 c 0
EndSplineSet
EndChar

StartChar: uni064F.alt
Encoding: 65559 -1 58
Width: 0
VWidth: 0
Flags: HW
LayerCount: 2
Back
SplineSet
107.534179688 232.669921875 m 0
 164.716796875 235.092773438 212.244140625 184.803710938 212.401367188 131.489257812 c 0
 212.401367188 78.1826171875 166.484375 35.0498046875 111.237304688 34.771484375 c 0
 55.982421875 34.771484375 13.0732421875 76.4677734375 8.5751953125 130.006835938 c 0
 4.0673828125 183.532226562 50.337890625 230.291992188 107.534179688 232.669921875 c 0
-212.401367188 32.228515625 m 1
 103.140625 35.3212890625 l 1
EndSplineSet
Fore
SplineSet
109.753307007 183.03075031 m 0
 77.3785842698 181.894795127 56.8217683394 155.834776453 58.8294237096 134.152098455 c 1
 61.0124775257 104.680871938 82.2011942614 85 111 85 c 0
 140.632277462 85 162 108.117657837 162 131 c 0
 162 156.894879584 135.778196315 183.943904321 109.753307007 183.03075031 c 0
106.246692993 282.96924969 m 0
 194.221803685 286.056095679 262 211.105120416 262 131 c 0
 262 47.882342163 191.367722538 -15 111 -15 c 0
 29.2481521487 -15 -34.192048584 45.4121255081 -41.0235701783 128.178110175 c 1
 -47.9315470249 212.149130183 25.0216249585 280.119247302 106.246692993 282.96924969 c 0
-211.523831118 -17.9977325805 m 1
 -212.476168882 81.9977325805 l 1
 102.523831118 84.9977325805 l 1
 103.476168882 -14.9977325805 l 1
 -211.523831118 -17.9977325805 l 1
EndSplineSet
EndChar

StartChar: uni06A1.fina
Encoding: 65560 -1 59
Width: 1000
VWidth: 0
Flags: HW
LayerCount: 2
Back
SplineSet
66 99 m 1
 66 -53 l 2
 66 -111 108 -147 165 -147 c 2
 657 -147 l 2
 691 -147 712 -120 712 -93 c 2
 712 191 l 2
 712 319 570 344 498 298 c 0
 449 266 414 183 454 117 c 0
 501 39 571 53 672 53 c 2
 934 53 l 1
EndSplineSet
Fore
SplineSet
798 139 m 1
 934 139 l 1
 934 -33 l 1
 798 -33 l 1
 798 -93 l 0
 798 -128.584006128 784.657677616 -162.653609216 759.966048567 -188.969687544 c 0
 734.962836178 -215.617848116 697.520306269 -233 657 -233 c 0
 165 -233 l 0
 110.61664135 -233 55.1649515768 -211.983838728 18.6274530921 -166.581789874 c 0
 -6.96241638866 -134.783430586 -20 -94.2979912216 -20 -53 c 0
 -20 99 l 1
 152 99 l 1
 152 -53 l 0
 152 -56.4974221223 152.509622226 -58.1644970661 152.687694911 -58.6951812284 c 1
 153.510831983 -59.185051995 157.129823388 -61 165 -61 c 0
 626 -61 l 1
 626 -33.6543883967 l 1
 554.311895909 -35.0064100255 444.566888063 -33.9762882099 380.395905543 72.5202359726 c 1
 310.895507941 187.195892016 369.000469504 316.470122158 451.336171836 370.240376742 c 1
 541.405303469 427.784544174 692.709327952 423.411626254 765.86268881 307.569019107 c 0
 786.867515182 274.30665329 798 233.820324306 798 191 c 0
 798 139 l 1
626 138.377854443 m 1
 626 191 l 0
 626 204.964511757 623.108807132 211.361709008 620.628061864 215.41724046 c 0
 611.99389412 229.532409513 567.840687364 239.973604197 544.692678015 225.773391129 c 1
 527.638627284 213.906574813 517.383094863 178.344413358 527.604094457 161.479764027 c 1
 541.771598001 137.967736869 542.962432496 136.757028896 626 138.377854443 c 1
EndSplineSet
EndChar

StartChar: uni066F
Encoding: 1647 1647 60
Width: 1000
VWidth: 0
Flags: HW
LayerCount: 2
Back
SplineSet
66 99 m 1
 66 -53 l 2
 66 -111 108 -147 165 -147 c 2
 657 -147 l 2
 691 -147 712 -120 712 -93 c 2
 712 191 l 2
 712 319 570 344 498 298 c 0
 449 266 414 183 454 117 c 0
 501 39 571 53 672 53 c 2
EndSplineSet
Fore
SplineSet
626 -33.6543883967 m 1
 554.311895909 -35.0064100255 444.566888063 -33.9762882099 380.395905543 72.5202359726 c 1
 310.895507941 187.195892016 369.000469504 316.470122158 451.336171836 370.240376742 c 1
 541.405303469 427.784544174 692.709327952 423.411626254 765.86268881 307.569019107 c 0
 786.867515182 274.30665329 798 233.820324306 798 191 c 0
 798 -93 l 0
 798 -127.872878056 785.182990574 -161.25008747 761.468523376 -187.342673465 c 0
 736.450865762 -214.869135571 698.391547168 -233 657 -233 c 0
 235 -233 l 0
 180.61664135 -233 125.164951577 -211.983838728 88.6274530921 -166.581789874 c 0
 63.0375836113 -134.783430586 50 -94.2979912216 50 -53 c 0
 50 189 l 1
 222 189 l 1
 222 -53 l 0
 222 -56.4974221223 222.509622226 -58.1644970661 222.687694911 -58.6951812284 c 1
 223.510831983 -59.185051995 227.129823388 -61 235 -61 c 0
 626 -61 l 1
 626 -33.6543883967 l 1
626 138.377854443 m 1
 626 191 l 0
 626 204.964511757 623.108807132 211.361709008 620.628061864 215.41724046 c 0
 611.99389412 229.532409513 567.840687364 239.973604197 544.692678015 225.773391129 c 1
 527.638627284 213.906574813 517.383094863 178.344413358 527.604094457 161.479764027 c 1
 541.771598001 137.967736869 542.962432496 136.757028896 626 138.377854443 c 1
EndSplineSet
EndChar

StartChar: uni066F.fina
Encoding: 65561 -1 61
Width: 1000
VWidth: 0
Flags: HW
LayerCount: 2
Back
SplineSet
136 189 m 1
 136 -53 l 2
 136 -111 178 -147 235 -147 c 2
 657 -147 l 2
 691 -147 712 -120 712 -93 c 2
 712 191 l 2
 712 319 570 344 498 298 c 0
 449 266 414 183 454 117 c 0
 501 39 571 53 672 53 c 2
 934 53 l 1
EndSplineSet
Fore
SplineSet
798 139 m 1
 934 139 l 1
 934 -33 l 1
 798 -33 l 1
 798 -93 l 0
 798 -127.872878056 785.182990574 -161.25008747 761.468523376 -187.342673465 c 0
 736.450865762 -214.869135571 698.391547168 -233 657 -233 c 0
 235 -233 l 0
 180.61664135 -233 125.164951577 -211.983838728 88.6274530921 -166.581789874 c 0
 63.0375836113 -134.783430586 50 -94.2979912216 50 -53 c 0
 50 189 l 1
 222 189 l 1
 222 -53 l 0
 222 -56.4974221223 222.509622226 -58.1644970661 222.687694911 -58.6951812284 c 1
 223.510831983 -59.185051995 227.129823388 -61 235 -61 c 0
 626 -61 l 1
 626 -33.6543883967 l 1
 554.311895909 -35.0064100255 444.566888063 -33.9762882099 380.395905543 72.5202359726 c 1
 310.895507941 187.195892016 369.000469504 316.470122158 451.336171836 370.240376742 c 1
 541.405303469 427.784544174 692.709327952 423.411626254 765.86268881 307.569019107 c 0
 786.867515182 274.30665329 798 233.820324306 798 191 c 0
 798 139 l 1
626 138.377854443 m 1
 626 191 l 0
 626 204.964511757 623.108807132 211.361709008 620.628061864 215.41724046 c 0
 611.99389412 229.532409513 567.840687364 239.973604197 544.692678015 225.773391129 c 1
 527.638627284 213.906574813 517.383094863 178.344413358 527.604094457 161.479764027 c 1
 541.771598001 137.967736869 542.962432496 136.757028896 626 138.377854443 c 1
EndSplineSet
EndChar

StartChar: uni066F.init
Encoding: 65562 -1 62
Width: 1000
VWidth: 0
Flags: HW
LayerCount: 2
Back
SplineSet
672 53 m 6
 934 53 l 5
EndSplineSet
Fore
SplineSet
626 166.345611603 m 1
 554.311895909 164.993589975 444.566888063 166.02371179 380.395905543 272.520235973 c 1
 310.895507941 387.195892016 369.000469504 516.470122158 451.336171836 570.240376742 c 1
 541.405303469 627.784544174 692.709327952 623.411626254 765.86268881 507.569019107 c 0
 786.867515182 474.30665329 798 433.820324306 798 391 c 0
 798 107 l 0
 798 71.4159938719 784.657677616 37.3463907844 759.966048567 11.0303124559 c 0
 734.962836178 -15.6178481164 697.520306269 -33 657 -33 c 0
 305 -33 l 1
 305 139 l 1
 626 139 l 1
 626 166.345611603 l 1
626 338.377854443 m 1
 626 391 l 0
 626 404.964511757 623.108807132 411.361709008 620.628061864 415.41724046 c 0
 611.99389412 429.532409513 567.840687364 439.973604197 544.692678015 425.773391129 c 1
 527.638627284 413.906574813 517.383094863 378.344413358 527.604094457 361.479764027 c 1
 541.771598001 337.967736869 542.962432496 336.757028896 626 338.377854443 c 1
EndSplineSet
EndChar
